<svg version="1.1" id="Layer_1" xmlns="http://www.w3.org/2000/svg" xmlns:xlink="http://www.w3.org/1999/xlink" x="0px" y="0px"
	 width="100%" viewBox="0 0 1022 223" enable-background="new 0 0 1022 223" xml:space="preserve">
<path fill="#090909" opacity="1.000000" stroke="none" 
	d="
M744.000000,224.000000 
	C496.000000,224.000000 248.500000,224.000000 1.000000,224.000000 
	C1.000000,149.666672 1.000000,75.333336 1.000000,1.000000 
	C341.666656,1.000000 682.333313,1.000000 1023.000000,1.000000 
	C1023.000000,75.333336 1023.000000,149.666672 1023.000000,224.000000 
	C930.166687,224.000000 837.333313,224.000000 744.000000,224.000000 
M806.923096,69.002373 
	C816.491394,69.000671 826.062195,69.104866 835.625366,68.882050 
	C837.044373,68.848991 838.427551,67.273582 840.312195,65.832977 
	C840.207947,58.551277 840.103699,51.269577 839.840393,43.253941 
	C837.534851,42.955471 835.230957,42.410660 832.923584,42.396038 
	C804.958862,42.218769 776.993591,42.094078 749.028442,42.078815 
	C747.687927,42.078083 746.346802,43.223011 744.200256,44.099461 
	C743.820496,44.594551 743.117249,45.085094 743.110168,45.585445 
	C743.021240,51.905804 742.962708,58.229164 743.106567,64.546951 
	C743.124634,65.340034 744.344971,66.105736 745.184448,67.688316 
	C746.824341,68.125572 748.459595,68.919525 750.104919,68.941055 
	C759.401917,69.062675 768.701355,68.999016 777.999878,69.935982 
	C777.999878,98.458000 777.966125,126.980164 778.078674,155.501740 
	C778.085938,157.334915 779.223816,159.163635 779.996155,161.791840 
	C781.317505,162.404861 782.606689,163.443436 783.966675,163.546432 
	C787.268433,163.796478 790.603088,163.600677 793.924500,163.603729 
	C804.849426,163.613800 804.823303,163.617050 804.844604,152.677170 
	C804.898865,124.784187 804.978760,96.891258 805.516113,69.000107 
	C805.516113,69.000107 805.983704,69.000610 806.923096,69.002373 
M425.026123,163.778961 
	C426.737335,167.441864 430.089142,166.423996 432.990662,166.481415 
	C437.273651,166.566177 441.626221,166.008881 445.822968,166.608276 
	C448.813324,167.035339 450.636841,166.514587 452.590210,163.390579 
	C452.723694,162.748520 452.973053,162.106583 452.973816,161.464371 
	C452.997406,141.874924 453.014343,122.285416 452.957031,102.696136 
	C452.953461,101.467766 452.339630,100.241180 452.002747,98.205322 
	C451.233093,94.904556 453.020172,90.509453 447.620056,88.471718 
	C446.993469,87.013748 446.366913,85.555779 446.427887,83.971535 
	C446.760162,83.412102 447.092438,82.852661 447.424683,82.293213 
	C446.173248,81.902153 444.921844,81.511086 443.136475,80.824181 
	C442.063568,79.622711 440.990662,78.421242 439.910797,76.612465 
	C439.276398,76.400223 438.641998,76.187981 437.299530,75.831871 
	C420.524200,66.068718 402.791809,70.726875 393.005798,87.873901 
	C387.802429,77.403412 379.601685,71.597389 368.030060,71.006157 
	C356.668732,70.425667 347.758392,75.264809 341.240692,83.503723 
	C339.748871,80.106644 338.371246,76.969574 336.772003,73.072014 
	C330.716461,72.900620 324.661163,72.716850 318.604492,72.614250 
	C318.411865,72.610992 318.205139,73.441864 317.685913,74.118179 
	C317.685913,74.118179 317.290039,74.120598 316.458801,74.205627 
	C315.974030,75.308014 315.069153,76.409180 315.065948,77.512962 
	C314.986725,104.766991 314.974487,132.021408 315.096436,159.275116 
	C315.101898,160.490143 316.482666,161.698990 317.971313,163.209625 
	C325.564453,163.209625 333.157593,163.209625 341.158081,163.209625 
	C341.158081,161.401932 341.158295,159.764465 341.158020,158.126984 
	C341.155884,145.127090 340.789368,132.112808 341.301910,119.133255 
	C341.566345,112.437187 342.774323,105.617546 344.696320,99.195000 
	C346.462341,93.293709 351.830261,91.126534 357.766541,91.265114 
	C363.584656,91.400940 368.134125,94.091377 369.900269,99.801933 
	C371.105927,103.700264 371.862762,107.892807 371.914856,111.965378 
	C372.131989,128.943558 372.006256,145.926102 372.006256,163.254517 
	C380.070679,163.254517 387.806000,163.254517 395.889313,163.254517 
	C395.889313,161.221817 395.886169,159.421066 395.889862,157.620300 
	C395.921204,142.287384 395.662201,126.944923 396.163574,111.627365 
	C396.314148,107.027481 397.963135,102.188286 400.038361,98.011574 
	C402.728119,92.598160 408.760864,90.575027 415.033173,91.810287 
	C419.999847,92.788422 423.632202,95.157600 424.218719,101.225601 
	C424.437683,101.478630 424.656677,101.731659 425.120941,102.698883 
	C425.115662,103.451706 425.110382,104.204529 424.640533,105.269234 
	C425.038818,105.843918 425.437103,106.418594 426.012329,107.649078 
	C425.976593,108.097740 425.940887,108.546402 425.135345,109.214935 
	C424.757294,110.389626 424.055664,111.562782 424.050110,112.739235 
	C423.976501,128.269608 423.978577,143.800552 424.043793,159.330994 
	C424.048950,160.553070 424.665070,161.772583 425.026123,163.778961 
M542.307129,100.740791 
	C541.918701,99.828911 541.530273,98.917030 540.883667,97.291046 
	C538.069153,86.985229 532.317139,79.008102 522.226318,74.880920 
	C508.318298,69.192451 494.318207,69.387680 480.938141,76.249619 
	C471.271393,81.207199 466.390472,89.679962 465.922058,100.865585 
	C473.472015,100.865585 480.585907,100.865585 487.654144,100.865585 
	C491.327545,91.065865 496.968567,87.957375 506.505829,89.984276 
	C512.960083,91.355965 519.137085,99.108994 517.539795,108.008873 
	C513.646179,108.354721 509.669922,108.515427 505.755890,109.095879 
	C497.755249,110.282364 489.612518,111.048561 481.846588,113.159035 
	C468.896606,116.678352 461.377686,127.992157 462.611359,140.282913 
	C463.755127,151.677612 469.136566,160.087433 480.101501,163.903229 
	C491.936401,168.021759 503.276184,167.080566 513.102173,158.371597 
	C514.963806,156.721588 516.590088,154.806122 518.389160,152.946854 
	C518.995544,156.820160 519.518311,160.159470 520.099182,163.870193 
	C527.668030,163.870193 534.640137,163.870193 542.457214,163.808334 
	C542.971130,162.566010 543.925476,161.326187 543.932495,160.081009 
	C544.030762,142.710739 544.040100,125.339455 543.919312,107.969460 
	C543.910034,106.643929 542.756775,105.326355 541.921448,103.298561 
	C541.865906,102.566406 541.810425,101.834259 542.307129,100.740791 
M718.869751,46.305401 
	C715.837952,44.342159 712.895813,41.972736 708.162964,44.195869 
	C707.107239,44.080856 706.051453,43.965839 704.777283,43.086735 
	C703.581421,42.724503 702.387146,42.052879 701.189514,42.047058 
	C686.362793,41.974957 671.535461,41.968182 656.708801,42.045368 
	C655.103821,42.053719 653.502075,42.692963 651.097595,43.013302 
	C650.416138,45.023277 649.146973,47.031361 649.140503,49.043507 
	C649.023071,85.525932 649.043091,122.008873 649.104797,158.491592 
	C649.107727,160.212677 649.767944,161.932663 650.093628,164.187485 
	C650.262634,164.466980 650.431641,164.746475 650.600586,165.025940 
	C650.735168,164.648987 650.869690,164.272018 651.905151,163.616013 
	C666.920166,163.701599 681.935181,163.787201 697.470703,164.472412 
	C699.979004,164.033859 702.487305,163.595306 705.728149,162.995560 
	C706.475403,162.970856 707.222717,162.946152 708.345154,163.435318 
	C709.228638,163.008453 710.112183,162.581589 711.732910,161.955994 
	C714.524170,160.973740 717.433960,160.238632 720.086487,158.966980 
	C732.365601,153.080200 739.235291,143.468994 739.271790,129.626724 
	C739.306763,116.354713 733.012146,106.961159 721.043945,101.321831 
	C720.148987,100.900116 719.236938,100.514580 717.870361,99.906425 
	C728.562500,95.659569 734.129883,89.774254 734.917358,81.504906 
	C736.298950,66.999451 733.089783,54.453625 718.869751,46.305401 
M229.502182,21.990307 
	C206.808411,9.240074 182.623581,4.720293 157.149307,10.384317 
	C100.933823,22.883440 66.103104,77.704750 77.907112,134.406235 
	C91.897789,201.611618 164.307144,236.878220 225.282974,205.810989 
	C268.844025,183.616608 288.386841,138.798828 280.620850,94.515007 
	C275.094910,63.004414 257.599182,38.955750 229.502182,21.990307 
M913.636230,164.216339 
	C933.333435,160.621170 948.596985,141.594833 949.610229,125.101929 
	C941.954895,125.101929 934.305237,125.101929 926.528992,125.101929 
	C926.090393,126.119087 925.696289,127.164268 925.201782,128.159531 
	C919.431091,139.773453 909.518860,143.575775 897.249878,143.044144 
	C886.495300,142.578156 879.228333,137.168396 875.094482,127.438759 
	C870.977051,117.747826 870.338806,107.553978 870.876221,97.159782 
	C871.304565,88.875504 873.400085,81.202110 878.048767,74.306625 
	C888.235352,59.196613 911.693542,58.845787 922.298889,73.702934 
	C924.367126,76.600410 925.943909,79.848732 927.560791,82.615784 
	C935.172302,82.615784 942.543030,82.615784 949.956238,82.615784 
	C946.041870,58.207512 929.634338,43.518173 904.856262,41.914574 
	C877.681885,40.155895 857.008118,52.792645 848.162476,77.012413 
	C842.905396,91.406479 842.716003,106.246452 845.712402,121.178055 
	C848.224243,133.694946 853.581238,144.796951 863.341797,153.174728 
	C877.753174,165.544525 894.654419,168.127365 913.636230,164.216339 
M554.157776,73.608398 
	C549.828003,73.439629 552.479675,75.581459 553.211853,76.768539 
	C560.853149,89.157410 568.496460,101.546120 576.299072,113.833405 
	C577.799500,116.196320 578.130371,117.941620 576.596191,120.512314 
	C571.943542,128.308640 567.606873,136.294403 563.189270,144.229858 
	C559.696289,150.504410 556.265503,156.813629 552.515686,163.637817 
	C560.439209,163.637817 567.548218,163.534195 574.651794,163.684296 
	C577.894226,163.752808 579.643066,162.502350 581.125793,159.558762 
	C585.649902,150.577484 590.559204,141.790268 595.602844,132.398132 
	C600.689880,141.782013 605.478821,150.795685 610.487671,159.685394 
	C611.359192,161.232117 613.113281,163.287781 614.537109,163.350418 
	C622.573914,163.704041 630.634399,163.521240 639.226562,163.521240 
	C630.773926,149.286423 622.817749,135.590729 614.512756,122.109909 
	C612.434387,118.736275 612.299500,116.306313 614.408264,112.904114 
	C622.373596,100.052986 630.013794,87.000305 638.031677,73.594978 
	C629.824829,73.594978 622.211365,73.756844 614.610779,73.514931 
	C611.591187,73.418816 610.285278,74.657349 609.015808,77.162483 
	C604.611816,85.852882 599.943542,94.409378 595.133118,103.474174 
	C590.499573,94.999573 586.021179,87.301666 582.052490,79.349342 
	C579.956482,75.149399 577.451050,73.090034 572.509094,73.483467 
	C566.718933,73.944427 560.863647,73.586357 554.157776,73.608398 
z"/>
<path fill="#FAFAFA" opacity="1.000000" stroke="none" 
	d="
M229.840271,22.137089 
	C257.599182,38.955750 275.094910,63.004414 280.620850,94.515007 
	C288.386841,138.798828 268.844025,183.616608 225.282974,205.810989 
	C164.307144,236.878220 91.897789,201.611618 77.907112,134.406235 
	C66.103104,77.704750 100.933823,22.883440 157.149307,10.384317 
	C182.623581,4.720293 206.808411,9.240074 229.840271,22.137089 
M195.397324,39.838772 
	C192.294998,39.838772 189.192688,39.838772 185.599731,39.838772 
	C185.599731,47.102264 185.599731,53.845425 185.599731,60.662968 
	C182.146988,60.662968 179.209076,60.662968 175.945953,60.662968 
	C175.567505,53.634426 175.197403,46.761036 174.840256,40.128220 
	C170.428467,40.128220 166.510742,40.128220 162.048889,40.128220 
	C162.048889,47.180523 162.048889,53.914330 162.048889,61.055069 
	C153.083298,61.055069 144.676102,61.055069 136.309219,61.055069 
	C136.309219,66.224243 136.309219,70.957916 136.309219,76.043503 
	C141.039001,76.043503 145.476303,76.043503 150.092438,76.043503 
	C150.092438,99.795639 150.092438,123.188423 150.092438,147.077087 
	C145.173416,147.077087 140.430054,147.077087 135.940460,147.077087 
	C135.940460,152.990356 135.940460,158.405167 135.940460,164.170502 
	C144.675598,164.170502 153.119781,164.170502 161.333710,164.170502 
	C161.333710,171.615814 161.333710,178.698074 161.333710,185.720032 
	C165.632477,185.720032 169.706070,185.720032 174.406189,185.720032 
	C174.406189,178.367157 174.406189,171.303497 174.406189,164.394333 
	C177.955734,164.394333 180.861099,164.394333 183.785355,164.394333 
	C184.108826,171.710922 184.416763,178.676071 184.731461,185.794067 
	C188.987442,185.794067 192.920776,185.794067 197.018829,185.794067 
	C197.414490,178.494476 197.799225,171.396591 198.181870,164.337173 
	C219.952286,161.397003 231.230026,152.681015 232.927231,137.597534 
	C234.465820,123.923462 228.357025,114.952454 213.637924,109.270432 
	C213.649353,109.104919 213.595581,108.859917 213.683563,108.787720 
	C214.055573,108.482475 214.447205,108.185760 214.871857,107.962349 
	C223.743546,103.294830 228.704666,96.269638 228.000122,85.932266 
	C227.314194,75.867836 222.157837,68.785950 212.995972,64.854301 
	C208.541367,62.942696 203.762558,61.786549 199.007095,60.248489 
	C199.007095,54.587063 199.154434,48.922611 198.887405,43.277767 
	C198.831482,42.095921 197.248383,40.986320 195.397324,39.838772 
z"/>
<path fill="#F9F9F9" opacity="1.000000" stroke="none" 
	d="
M707.969971,162.921478 
	C707.222717,162.946152 706.475403,162.970856 704.946655,163.010941 
	C701.760132,163.308487 699.355164,163.590652 696.950195,163.872803 
	C681.935181,163.787201 666.920166,163.701599 651.247803,163.645050 
	C650.590515,163.674072 650.122009,163.653168 650.122070,163.653168 
	C649.767944,161.932663 649.107727,160.212677 649.104797,158.491592 
	C649.043091,122.008873 649.023071,85.525932 649.140503,49.043507 
	C649.146973,47.031361 650.416138,45.023277 651.715698,43.411442 
	C669.887756,43.823330 687.441711,43.837078 704.995728,43.850822 
	C706.051453,43.965839 707.107239,44.080856 708.849609,44.395664 
	C712.688843,45.403175 715.841431,46.210888 718.994080,47.018600 
	C733.089783,54.453625 736.298950,66.999451 734.917358,81.504906 
	C734.129883,89.774254 728.562500,95.659569 717.870361,99.906425 
	C719.236938,100.514580 720.148987,100.900116 721.043945,101.321831 
	C733.012146,106.961159 739.306763,116.354713 739.271790,129.626724 
	C739.235291,143.468994 732.365601,153.080200 720.086487,158.966980 
	C717.433960,160.238632 714.524170,160.973740 711.041138,161.992310 
	C709.556274,162.326248 708.763123,162.623856 707.969971,162.921478 
M673.993713,118.576324 
	C673.993713,126.348961 673.993713,134.121597 673.993713,142.016525 
	C683.079224,142.016525 691.701111,142.290222 700.296814,141.933960 
	C707.805176,141.622787 713.492004,135.488846 714.006348,128.019821 
	C714.547974,120.155182 710.651123,113.919418 702.717346,113.106750 
	C693.287598,112.140854 683.683167,112.879440 673.994263,112.879440 
	C673.994263,114.296165 673.994263,115.947708 673.993713,118.576324 
M673.999329,66.785004 
	C673.999329,75.221802 673.999329,83.658600 673.999329,92.289078 
	C679.168884,92.289078 683.830322,92.581573 688.437683,92.207779 
	C693.157410,91.824875 698.025452,91.384262 702.461182,89.883278 
	C707.544983,88.163010 710.511597,82.053871 709.830078,77.024391 
	C708.907288,70.214455 705.336731,65.477753 699.361511,64.938637 
	C691.443054,64.224190 683.443787,64.381172 675.477722,64.280602 
	C674.992981,64.274475 674.495300,65.295326 673.999329,66.785004 
z"/>
<path fill="#F7F7F7" opacity="1.000000" stroke="none" 
	d="
M425.905151,108.995056 
	C425.940887,108.546402 425.976593,108.097740 425.989929,107.015121 
	C425.680023,105.906563 425.392548,105.431961 425.105072,104.957352 
	C425.110382,104.204529 425.115662,103.451706 425.021027,102.061821 
	C424.646027,101.192703 424.370911,100.960640 424.095825,100.728577 
	C423.632202,95.157600 419.999847,92.788422 415.033173,91.810287 
	C408.760864,90.575027 402.728119,92.598160 400.038361,98.011574 
	C397.963135,102.188286 396.314148,107.027481 396.163574,111.627365 
	C395.662201,126.944923 395.921204,142.287384 395.889862,157.620300 
	C395.886169,159.421066 395.889313,161.221817 395.889313,163.254517 
	C387.806000,163.254517 380.070679,163.254517 372.006256,163.254517 
	C372.006256,145.926102 372.131989,128.943558 371.914856,111.965378 
	C371.862762,107.892807 371.105927,103.700264 369.900269,99.801933 
	C368.134125,94.091377 363.584656,91.400940 357.766541,91.265114 
	C351.830261,91.126534 346.462341,93.293709 344.696320,99.195000 
	C342.774323,105.617546 341.566345,112.437187 341.301910,119.133255 
	C340.789368,132.112808 341.155884,145.127090 341.158020,158.126984 
	C341.158295,159.764465 341.158081,161.401932 341.158081,163.209625 
	C333.157593,163.209625 325.564453,163.209625 317.606689,162.597290 
	C317.258057,132.696838 317.274048,103.408714 317.290039,74.120598 
	C317.290039,74.120598 317.685913,74.118179 318.311340,74.047928 
	C324.955719,73.929283 330.974640,73.880898 336.993591,73.832520 
	C338.371246,76.969574 339.748871,80.106644 341.240692,83.503723 
	C347.758392,75.264809 356.668732,70.425667 368.030060,71.006157 
	C379.601685,71.597389 387.802429,77.403412 393.005798,87.873901 
	C402.791809,70.726875 420.524200,66.068718 437.823975,76.143524 
	C438.871521,76.710045 439.394623,76.964912 439.917755,77.219772 
	C440.990662,78.421242 442.063568,79.622711 443.502991,81.266037 
	C444.493103,82.504532 445.116730,83.301170 445.740326,84.097809 
	C446.366913,85.555779 446.993469,87.013748 447.826050,89.133789 
	C448.958679,94.893639 449.885345,99.991409 450.681946,105.536606 
	C450.637360,121.630096 450.722809,137.276169 450.684906,153.308685 
	C450.548309,155.999252 450.774902,158.341400 450.418396,160.591156 
	C450.245514,161.682053 448.981018,163.461029 448.208740,163.462067 
	C440.846893,163.471848 433.484650,163.167145 426.150970,162.487762 
	C426.088013,144.346878 425.996582,126.670967 425.905151,108.995056 
z"/>
<path fill="#F9F9F9" opacity="1.000000" stroke="none" 
	d="
M913.244751,164.375504 
	C894.654419,168.127365 877.753174,165.544525 863.341797,153.174728 
	C853.581238,144.796951 848.224243,133.694946 845.712402,121.178055 
	C842.716003,106.246452 842.905396,91.406479 848.162476,77.012413 
	C857.008118,52.792645 877.681885,40.155895 904.856262,41.914574 
	C929.634338,43.518173 946.041870,58.207512 949.956238,82.615784 
	C942.543030,82.615784 935.172302,82.615784 927.560791,82.615784 
	C925.943909,79.848732 924.367126,76.600410 922.298889,73.702934 
	C911.693542,58.845787 888.235352,59.196613 878.048767,74.306625 
	C873.400085,81.202110 871.304565,88.875504 870.876221,97.159782 
	C870.338806,107.553978 870.977051,117.747826 875.094482,127.438759 
	C879.228333,137.168396 886.495300,142.578156 897.249878,143.044144 
	C909.518860,143.575775 919.431091,139.773453 925.201782,128.159531 
	C925.696289,127.164268 926.090393,126.119087 926.528992,125.101929 
	C934.305237,125.101929 941.954895,125.101929 949.610229,125.101929 
	C948.596985,141.594833 933.333435,160.621170 913.244751,164.375504 
z"/>
<path fill="#F9F9F9" opacity="1.000000" stroke="none" 
	d="
M541.612305,163.870193 
	C534.640137,163.870193 527.668030,163.870193 520.099182,163.870193 
	C519.518311,160.159470 518.995544,156.820160 518.389160,152.946854 
	C516.590088,154.806122 514.963806,156.721588 513.102173,158.371597 
	C503.276184,167.080566 491.936401,168.021759 480.101501,163.903229 
	C469.136566,160.087433 463.755127,151.677612 462.611359,140.282913 
	C461.377686,127.992157 468.896606,116.678352 481.846588,113.159035 
	C489.612518,111.048561 497.755249,110.282364 505.755890,109.095879 
	C509.669922,108.515427 513.646179,108.354721 517.539795,108.008873 
	C519.137085,99.108994 512.960083,91.355965 506.505829,89.984276 
	C496.968567,87.957375 491.327545,91.065865 487.654144,100.865585 
	C480.585907,100.865585 473.472015,100.865585 465.922058,100.865585 
	C466.390472,89.679962 471.271393,81.207199 480.938141,76.249619 
	C494.318207,69.387680 508.318298,69.192451 522.226318,74.880920 
	C532.317139,79.008102 538.069153,86.985229 540.951172,97.973862 
	C541.264038,99.471817 541.509460,100.286957 541.754883,101.102097 
	C541.810425,101.834259 541.865906,102.566406 541.965576,104.116440 
	C542.007812,113.599144 542.054626,122.264305 541.991638,130.928680 
	C541.911865,141.909515 541.742859,152.889725 541.612305,163.870193 
M518.068420,128.490143 
	C517.974976,127.040535 517.881470,125.590927 517.753052,123.598610 
	C509.568481,124.732033 501.695221,125.630455 493.898712,126.974091 
	C489.233429,127.778099 486.265228,130.724503 485.981140,135.737717 
	C485.669250,141.241302 488.008698,145.308365 493.048279,146.960556 
	C505.012146,150.882812 518.319092,145.505676 518.068420,128.490143 
z"/>
<path fill="#F7F7F7" opacity="1.000000" stroke="none" 
	d="
M745.008240,66.884125 
	C744.344971,66.105736 743.124634,65.340034 743.106567,64.546951 
	C742.962708,58.229164 743.021240,51.905804 743.110168,45.585445 
	C743.117249,45.085094 743.820496,44.594551 745.066650,44.037918 
	C777.288452,43.980209 808.643982,43.984043 839.999451,43.987877 
	C840.103699,51.269577 840.207947,58.551277 839.613281,66.130447 
	C828.624878,66.557892 818.335388,66.687859 807.621094,66.707619 
	C806.480408,67.397713 805.764404,68.198013 805.048462,68.998314 
	C804.978760,96.891258 804.898865,124.784187 804.844604,152.677170 
	C804.823303,163.617050 804.849426,163.613800 793.924500,163.603729 
	C790.603088,163.600677 787.268433,163.796478 783.966675,163.546432 
	C782.606689,163.443436 781.317505,162.404861 779.986938,160.929581 
	C779.983032,130.455368 780.002991,100.843384 779.950134,71.231529 
	C779.947510,69.757004 779.312317,68.283615 778.522095,66.672836 
	C767.051025,66.652031 756.029663,66.768082 745.008240,66.884125 
z"/>
<path fill="#F8F8F8" opacity="1.000000" stroke="none" 
	d="
M554.597168,73.595978 
	C560.863647,73.586357 566.718933,73.944427 572.509094,73.483467 
	C577.451050,73.090034 579.956482,75.149399 582.052490,79.349342 
	C586.021179,87.301666 590.499573,94.999573 595.133118,103.474174 
	C599.943542,94.409378 604.611816,85.852882 609.015808,77.162483 
	C610.285278,74.657349 611.591187,73.418816 614.610779,73.514931 
	C622.211365,73.756844 629.824829,73.594978 638.031677,73.594978 
	C630.013794,87.000305 622.373596,100.052986 614.408264,112.904114 
	C612.299500,116.306313 612.434387,118.736275 614.512756,122.109909 
	C622.817749,135.590729 630.773926,149.286423 639.226562,163.521240 
	C630.634399,163.521240 622.573914,163.704041 614.537109,163.350418 
	C613.113281,163.287781 611.359192,161.232117 610.487671,159.685394 
	C605.478821,150.795685 600.689880,141.782013 595.602844,132.398132 
	C590.559204,141.790268 585.649902,150.577484 581.125793,159.558762 
	C579.643066,162.502350 577.894226,163.752808 574.651794,163.684296 
	C567.548218,163.534195 560.439209,163.637817 552.515686,163.637817 
	C556.265503,156.813629 559.696289,150.504410 563.189270,144.229858 
	C567.606873,136.294403 571.943542,128.308640 576.596191,120.512314 
	C578.130371,117.941620 577.799500,116.196320 576.299072,113.833405 
	C568.496460,101.546120 560.853149,89.157410 553.211853,76.768539 
	C552.479675,75.581459 549.828003,73.439629 554.597168,73.595978 
z"/>
<path fill="#020202" opacity="1.000000" stroke="none" 
	d="
M839.919922,43.620911 
	C808.643982,43.984043 777.288452,43.980209 745.469482,43.905403 
	C746.346802,43.223011 747.687927,42.078083 749.028442,42.078815 
	C776.993591,42.094078 804.958862,42.218769 832.923584,42.396038 
	C835.230957,42.410660 837.534851,42.955471 839.919922,43.620911 
z"/>
<path fill="#020202" opacity="1.000000" stroke="none" 
	d="
M778.971680,66.809692 
	C779.312317,68.283615 779.947510,69.757004 779.950134,71.231529 
	C780.002991,100.843384 779.983032,130.455368 779.906738,160.530884 
	C779.223816,159.163635 778.085938,157.334915 778.078674,155.501740 
	C777.966125,126.980164 777.999878,98.458000 778.247803,69.272003 
	C778.654358,68.008575 778.812988,67.409126 778.971680,66.809692 
z"/>
<path fill="#121212" opacity="1.000000" stroke="none" 
	d="
M316.874420,74.163116 
	C317.274048,103.408714 317.258057,132.696838 317.232452,162.447845 
	C316.482666,161.698990 315.101898,160.490143 315.096436,159.275116 
	C314.974487,132.021408 314.986725,104.766991 315.065948,77.512962 
	C315.069153,76.409180 315.974030,75.308014 316.874420,74.163116 
z"/>
<path fill="#020202" opacity="1.000000" stroke="none" 
	d="
M542.034790,163.839264 
	C541.742859,152.889725 541.911865,141.909515 541.991638,130.928680 
	C542.054626,122.264305 542.007812,113.599144 542.072510,104.469696 
	C542.756775,105.326355 543.910034,106.643929 543.919312,107.969460 
	C544.040100,125.339455 544.030762,142.710739 543.932495,160.081009 
	C543.925476,161.326187 542.971130,162.566010 542.034790,163.839264 
z"/>
<path fill="#131313" opacity="1.000000" stroke="none" 
	d="
M450.808228,152.922241 
	C450.722809,137.276169 450.637360,121.630096 450.993042,105.289200 
	C451.625977,102.734177 451.817810,100.873970 452.009674,99.013771 
	C452.339630,100.241180 452.953461,101.467766 452.957031,102.696136 
	C453.014343,122.285416 452.997406,141.874924 452.973816,161.464371 
	C452.973053,162.106583 452.723694,162.748520 452.299011,163.235123 
	C451.607941,159.693863 451.208099,156.308044 450.808228,152.922241 
z"/>
<path fill="#131313" opacity="1.000000" stroke="none" 
	d="
M425.520233,109.104996 
	C425.996582,126.670967 426.088013,144.346878 425.869751,162.501007 
	C425.372467,162.983932 425.184845,162.988617 424.997253,162.993286 
	C424.665070,161.772583 424.048950,160.553070 424.043793,159.330994 
	C423.978577,143.800552 423.976501,128.269608 424.050110,112.739235 
	C424.055664,111.562782 424.757294,110.389626 425.520233,109.104996 
z"/>
<path fill="#040404" opacity="1.000000" stroke="none" 
	d="
M704.886475,43.468781 
	C687.441711,43.837078 669.887756,43.823330 652.116333,43.424572 
	C653.502075,42.692963 655.103821,42.053719 656.708801,42.045368 
	C671.535461,41.968182 686.362793,41.974957 701.189514,42.047058 
	C702.387146,42.052879 703.581421,42.724503 704.886475,43.468781 
z"/>
<path fill="#060606" opacity="1.000000" stroke="none" 
	d="
M425.011688,163.386124 
	C425.184845,162.988617 425.372467,162.983932 425.841309,162.966003 
	C433.484650,163.167145 440.846893,163.471848 448.208740,163.462067 
	C448.981018,163.461029 450.245514,161.682053 450.418396,160.591156 
	C450.774902,158.341400 450.548309,155.999252 450.684906,153.308685 
	C451.208099,156.308044 451.607941,159.693863 452.009155,163.533997 
	C450.636841,166.514587 448.813324,167.035339 445.822968,166.608276 
	C441.626221,166.008881 437.273651,166.566177 432.990662,166.481415 
	C430.089142,166.423996 426.737335,167.441864 425.011688,163.386124 
z"/>
<path fill="#151515" opacity="1.000000" stroke="none" 
	d="
M778.522095,66.672829 
	C778.812988,67.409126 778.654358,68.008575 778.247864,68.803246 
	C768.701355,68.999016 759.401917,69.062675 750.104919,68.941055 
	C748.459595,68.919525 746.824341,68.125572 745.096313,67.286224 
	C756.029663,66.768082 767.051025,66.652031 778.522095,66.672829 
z"/>
<path fill="#151515" opacity="1.000000" stroke="none" 
	d="
M808.045898,66.817841 
	C818.335388,66.687859 828.624878,66.557892 839.370850,66.419830 
	C838.427551,67.273582 837.044373,68.848991 835.625366,68.882050 
	C826.062195,69.104866 816.491394,69.000671 806.624268,68.747070 
	C806.898926,67.933792 807.472412,67.375816 808.045898,66.817841 
z"/>
<path fill="#010101" opacity="1.000000" stroke="none" 
	d="
M336.882812,73.452271 
	C330.974640,73.880898 324.955719,73.929283 318.470886,73.930771 
	C318.205139,73.441864 318.411865,72.610992 318.604492,72.614250 
	C324.661163,72.716850 330.716461,72.900620 336.882812,73.452271 
z"/>
<path fill="#060606" opacity="1.000000" stroke="none" 
	d="
M452.006226,98.609543 
	C451.817810,100.873970 451.625977,102.734177 451.123047,104.841782 
	C449.885345,99.991409 448.958679,94.893639 448.047546,89.398438 
	C453.020172,90.509453 451.233093,94.904556 452.006226,98.609543 
z"/>
<path fill="#040404" opacity="1.000000" stroke="none" 
	d="
M718.931885,46.662003 
	C715.841431,46.210888 712.688843,45.403175 709.246765,44.356644 
	C712.895813,41.972736 715.837952,44.342159 718.931885,46.662003 
z"/>
<path fill="#040404" opacity="1.000000" stroke="none" 
	d="
M697.210449,164.172607 
	C699.355164,163.590652 701.760132,163.308487 704.580322,163.091537 
	C702.487305,163.595306 699.979004,164.033859 697.210449,164.172607 
z"/>
<path fill="#060606" opacity="1.000000" stroke="none" 
	d="
M446.084106,84.034668 
	C445.116730,83.301170 444.493103,82.504532 443.769958,81.413956 
	C444.921844,81.511086 446.173248,81.902153 447.424683,82.293213 
	C447.092438,82.852661 446.760162,83.412102 446.084106,84.034668 
z"/>
<path fill="#040404" opacity="1.000000" stroke="none" 
	d="
M708.157593,163.178406 
	C708.763123,162.623856 709.556274,162.326248 710.672546,162.091675 
	C710.112183,162.581589 709.228638,163.008453 708.157593,163.178406 
z"/>
<path fill="#020202" opacity="1.000000" stroke="none" 
	d="
M542.031006,100.921448 
	C541.509460,100.286957 541.264038,99.471817 541.080200,98.330902 
	C541.530273,98.917030 541.918701,99.828911 542.031006,100.921448 
z"/>
<path fill="#060606" opacity="1.000000" stroke="none" 
	d="
M439.914276,76.916122 
	C439.394623,76.964912 438.871521,76.710045 438.177979,76.215454 
	C438.641998,76.187981 439.276398,76.400223 439.914276,76.916122 
z"/>
<path fill="#010101" opacity="1.000000" stroke="none" 
	d="
M424.872803,105.113297 
	C425.392548,105.431961 425.680023,105.906563 425.901428,106.687218 
	C425.437103,106.418594 425.038818,105.843918 424.872803,105.113297 
z"/>
<path fill="#040404" opacity="1.000000" stroke="none" 
	d="
M807.621094,66.707626 
	C807.472412,67.375816 806.898926,67.933792 806.154541,68.746185 
	C805.983704,69.000610 805.516113,69.000107 805.282288,68.999207 
	C805.764404,68.198013 806.480408,67.397713 807.621094,66.707626 
z"/>
<path fill="#040404" opacity="1.000000" stroke="none" 
	d="
M650.107788,163.920319 
	C650.122009,163.653168 650.590515,163.674072 650.797363,163.784576 
	C650.869690,164.272018 650.735168,164.648987 650.600586,165.025940 
	C650.431641,164.746475 650.262634,164.466980 650.107788,163.920319 
z"/>
<path fill="#010101" opacity="1.000000" stroke="none" 
	d="
M424.157288,100.977089 
	C424.370911,100.960640 424.646027,101.192703 424.898376,101.704727 
	C424.656677,101.731659 424.437683,101.478630 424.157288,100.977089 
z"/>
<path fill="#0B0B0B" opacity="1.000000" stroke="none" 
	d="
M195.883179,39.841103 
	C197.248383,40.986320 198.831482,42.095921 198.887405,43.277767 
	C199.154434,48.922611 199.007095,54.587063 199.007095,60.248489 
	C203.762558,61.786549 208.541367,62.942696 212.995972,64.854301 
	C222.157837,68.785950 227.314194,75.867836 228.000122,85.932266 
	C228.704666,96.269638 223.743546,103.294830 214.871857,107.962349 
	C214.447205,108.185760 214.055573,108.482475 213.683563,108.787720 
	C213.595581,108.859917 213.649353,109.104919 213.637924,109.270432 
	C228.357025,114.952454 234.465820,123.923462 232.927231,137.597534 
	C231.230026,152.681015 219.952286,161.397003 198.181870,164.337173 
	C197.799225,171.396591 197.414490,178.494476 197.018829,185.794067 
	C192.920776,185.794067 188.987442,185.794067 184.731461,185.794067 
	C184.416763,178.676071 184.108826,171.710922 183.785355,164.394333 
	C180.861099,164.394333 177.955734,164.394333 174.406189,164.394333 
	C174.406189,171.303497 174.406189,178.367157 174.406189,185.720032 
	C169.706070,185.720032 165.632477,185.720032 161.333710,185.720032 
	C161.333710,178.698074 161.333710,171.615814 161.333710,164.170502 
	C153.119781,164.170502 144.675598,164.170502 135.940460,164.170502 
	C135.940460,158.405167 135.940460,152.990356 135.940460,147.077087 
	C140.430054,147.077087 145.173416,147.077087 150.092438,147.077087 
	C150.092438,123.188423 150.092438,99.795639 150.092438,76.043503 
	C145.476303,76.043503 141.039001,76.043503 136.309219,76.043503 
	C136.309219,70.957916 136.309219,66.224243 136.309219,61.055069 
	C144.676102,61.055069 153.083298,61.055069 162.048889,61.055069 
	C162.048889,53.914330 162.048889,47.180523 162.048889,40.128220 
	C166.510742,40.128220 170.428467,40.128220 174.840256,40.128220 
	C175.197403,46.761036 175.567505,53.634426 175.945953,60.662968 
	C179.209076,60.662968 182.146988,60.662968 185.599731,60.662968 
	C185.599731,53.845425 185.599731,47.102264 185.599731,39.838772 
	C189.192688,39.838772 192.294998,39.838772 195.883179,39.841103 
M192.824280,146.977997 
	C194.627747,146.678528 196.441498,146.430344 198.232910,146.070801 
	C206.460907,144.419388 210.691360,139.153198 210.299988,131.100113 
	C209.931168,123.510979 204.954163,118.458115 196.789688,118.011200 
	C188.978516,117.583611 181.141769,117.580200 173.315430,117.534447 
	C172.487091,117.529610 171.653091,118.493469 170.062744,119.232147 
	C169.822113,119.448128 169.373718,119.661369 169.370819,119.880493 
	C169.257858,128.449249 169.030472,137.023224 169.288635,145.582336 
	C169.324036,146.756104 171.736191,148.727997 173.159988,148.834641 
	C178.416443,149.228378 183.723099,149.089142 189.002975,148.912964 
	C190.017868,148.879105 190.997009,147.773178 192.824280,146.977997 
M171.010696,97.442314 
	C171.010696,99.363518 171.010696,101.284729 171.010696,103.197029 
	C177.160263,103.197029 182.647293,103.210831 188.134186,103.187965 
	C189.629486,103.181732 191.125916,103.090157 192.619110,102.995010 
	C201.106064,102.454185 206.517258,98.093712 207.005203,91.418983 
	C207.663071,82.419891 204.192184,77.600922 194.393768,76.444145 
	C186.762848,75.543266 178.940506,76.263893 171.015915,76.263893 
	C171.015915,83.193710 171.015915,89.824905 171.010696,97.442314 
z"/>
<path fill="#090909" opacity="1.000000" stroke="none" 
	d="
M673.994019,118.087791 
	C673.994263,115.947708 673.994263,114.296165 673.994263,112.879440 
	C683.683167,112.879440 693.287598,112.140854 702.717346,113.106750 
	C710.651123,113.919418 714.547974,120.155182 714.006348,128.019821 
	C713.492004,135.488846 707.805176,141.622787 700.296814,141.933960 
	C691.701111,142.290222 683.079224,142.016525 673.993713,142.016525 
	C673.993713,134.121597 673.993713,126.348961 673.994019,118.087791 
z"/>
<path fill="#0B0B0B" opacity="1.000000" stroke="none" 
	d="
M674.001465,66.311661 
	C674.495300,65.295326 674.992981,64.274475 675.477722,64.280602 
	C683.443787,64.381172 691.443054,64.224190 699.361511,64.938637 
	C705.336731,65.477753 708.907288,70.214455 709.830078,77.024391 
	C710.511597,82.053871 707.544983,88.163010 702.461182,89.883278 
	C698.025452,91.384262 693.157410,91.824875 688.437683,92.207779 
	C683.830322,92.581573 679.168884,92.289078 673.999329,92.289078 
	C673.999329,83.658600 673.999329,75.221802 674.001465,66.311661 
z"/>
<path fill="#0B0B0B" opacity="1.000000" stroke="none" 
	d="
M518.080078,128.949158 
	C518.319092,145.505676 505.012146,150.882812 493.048279,146.960556 
	C488.008698,145.308365 485.669250,141.241302 485.981140,135.737717 
	C486.265228,130.724503 489.233429,127.778099 493.898712,126.974091 
	C501.695221,125.630455 509.568481,124.732033 517.753052,123.598610 
	C517.881470,125.590927 517.974976,127.040535 518.080078,128.949158 
z"/>
<path fill="#F8F8F8" opacity="1.000000" stroke="none" 
	d="
M170.821732,119.007935 
	C171.653091,118.493469 172.487091,117.529610 173.315430,117.534447 
	C181.141769,117.580200 188.978516,117.583611 196.789688,118.011200 
	C204.954163,118.458115 209.931168,123.510979 210.299988,131.100113 
	C210.691360,139.153198 206.460907,144.419388 198.232910,146.070801 
	C196.441498,146.430344 194.627747,146.678528 191.944992,146.999542 
	C184.500641,147.021103 177.935593,147.021103 170.821732,147.021103 
	C170.821732,137.414398 170.821732,128.211166 170.821732,119.007935 
z"/>
<path fill="#FBFBFB" opacity="1.000000" stroke="none" 
	d="
M171.013306,96.949203 
	C171.015915,89.824905 171.015915,83.193710 171.015915,76.263893 
	C178.940506,76.263893 186.762848,75.543266 194.393768,76.444145 
	C204.192184,77.600922 207.663071,82.419891 207.005203,91.418983 
	C206.517258,98.093712 201.106064,102.454185 192.619110,102.995010 
	C191.125916,103.090157 189.629486,103.181732 188.134186,103.187965 
	C182.647293,103.210831 177.160263,103.197029 171.010696,103.197029 
	C171.010696,101.284729 171.010696,99.363518 171.013306,96.949203 
z"/>
<path fill="#020202" opacity="1.000000" stroke="none" 
	d="
M170.442230,119.120041 
	C170.821732,128.211166 170.821732,137.414398 170.821732,147.021103 
	C177.935593,147.021103 184.500641,147.021103 191.529175,147.091461 
	C190.997009,147.773178 190.017868,148.879105 189.002975,148.912964 
	C183.723099,149.089142 178.416443,149.228378 173.159988,148.834641 
	C171.736191,148.727997 169.324036,146.756104 169.288635,145.582336 
	C169.030472,137.023224 169.257858,128.449249 169.370819,119.880493 
	C169.373718,119.661369 169.822113,119.448128 170.442230,119.120041 
z"/>
</svg>