<svg version="1.1" id="Layer_1" xmlns="http://www.w3.org/2000/svg" xmlns:xlink="http://www.w3.org/1999/xlink" x="0px" y="0px"
	 width="100%" viewBox="0 0 1012 222" enable-background="new 0 0 1012 222" xml:space="preserve">
<path fill="#FDFDFD" opacity="1.000000" stroke="none" 
	d="
M739.000000,223.000000 
	C492.666656,223.000000 246.833328,223.000000 1.000000,223.000000 
	C1.000000,149.000000 1.000000,75.000000 1.000000,1.000000 
	C338.333344,1.000000 675.666687,1.000000 1013.000000,1.000000 
	C1013.000000,75.000000 1013.000000,149.000000 1013.000000,223.000000 
	C921.833313,223.000000 830.666687,223.000000 739.000000,223.000000 
M733.024048,108.297829 
	C732.862183,107.997726 732.611145,107.859627 731.973267,107.235680 
	C731.419067,106.803162 730.864807,106.370651 730.082153,105.393600 
	C729.062927,104.787369 728.043701,104.181137 726.595337,103.061256 
	C724.423523,102.362465 722.251709,101.663673 720.029846,100.318535 
	C721.393372,99.313370 722.756897,98.308205 724.774658,97.120033 
	C725.111389,96.411278 725.448120,95.702515 726.210144,94.345467 
	C726.553223,93.975807 726.896301,93.606148 727.656738,93.321976 
	C728.134766,93.226166 728.612854,93.130348 729.603271,93.140511 
	C729.771790,92.850563 729.940369,92.560616 730.756348,91.984230 
	C739.949402,82.634399 737.623230,59.478001 727.056274,51.942276 
	C727.056274,51.942276 727.189270,51.849697 726.923279,51.221359 
	C725.403564,50.218994 723.883911,49.216629 721.905823,47.870937 
	C721.037537,47.537167 720.169312,47.203400 718.902405,46.250320 
	C717.268127,45.834225 715.633850,45.418129 713.346985,44.444847 
	C692.599304,44.284203 671.851746,44.109844 651.103760,44.055218 
	C650.660767,44.054054 650.214111,45.430225 649.458191,47.023338 
	C649.561646,51.355263 649.665039,55.687187 649.476135,60.909126 
	C649.574463,67.940338 649.672852,74.971550 649.475220,82.894066 
	C649.583069,95.273354 649.690918,107.652649 649.510559,120.921074 
	C649.613647,131.604813 649.716736,142.288559 649.521118,153.595200 
	C649.625732,154.727509 649.730408,155.859818 649.566772,157.710648 
	C649.662720,158.459503 649.758606,159.208359 649.572632,160.517838 
	C650.383423,161.289429 651.194214,162.061020 652.930969,162.983078 
	C669.865173,162.988403 686.806763,163.298080 703.730835,162.886902 
	C714.176086,162.633118 723.846069,159.531860 731.710632,151.031921 
	C732.536560,149.818680 733.362427,148.605438 734.806274,147.026657 
	C736.172791,143.526962 737.539368,140.027267 739.160889,136.099350 
	C739.399048,134.399277 739.637268,132.699203 740.104553,130.216202 
	C740.024780,129.138687 739.944946,128.061157 740.003601,126.180473 
	C739.125183,122.795441 738.246765,119.410408 737.212708,115.296341 
	C736.239136,113.615173 735.265625,111.934006 734.225403,109.733826 
	C733.852844,109.403091 733.480286,109.072357 733.024048,108.297829 
M951.530151,128.678452 
	C951.353821,128.123962 951.177490,127.569481 950.077820,126.842018 
	C942.384216,126.908607 934.690613,126.975197 926.268677,127.039284 
	C923.740112,133.068405 920.665344,138.449768 914.222351,141.397385 
	C900.510803,147.670242 884.702454,143.642044 876.385864,131.069839 
	C866.641418,116.338936 867.060486,100.415337 872.104675,84.365677 
	C876.210510,71.301682 887.015015,63.883167 901.522339,63.219307 
	C913.220459,62.683990 921.089111,68.302956 926.800659,81.111115 
	C935.464783,81.111115 944.018799,81.111115 952.632202,81.111115 
	C950.467468,69.126015 947.344421,63.139935 939.877502,56.162872 
	C927.558838,44.652431 912.612549,40.651997 896.331543,42.126057 
	C876.083862,43.959244 860.238953,53.070793 850.739990,71.926872 
	C843.806641,85.690025 842.844604,100.335289 844.314636,115.086060 
	C845.522034,127.201263 849.682068,138.693207 858.400024,147.726578 
	C874.417542,164.323471 894.168945,168.347000 915.943665,163.195328 
	C934.218506,158.871704 945.682373,146.927094 950.996887,129.018845 
	C950.996887,129.018845 951.025146,129.048279 951.530151,128.678452 
M630.610168,150.568314 
	C630.610168,150.568314 630.634521,150.528748 630.441589,149.857269 
	C623.776855,139.757660 617.188293,129.606277 610.388855,119.598221 
	C608.864563,117.354614 608.836914,115.858131 610.436279,113.643387 
	C618.013550,103.150803 625.424255,92.537315 632.840576,81.929352 
	C634.758240,79.186432 636.481750,76.307739 638.614868,72.993477 
	C630.735901,72.993477 623.739990,73.215424 616.768799,72.897423 
	C613.413696,72.744377 611.789490,74.040977 610.162476,76.755890 
	C605.201477,85.034256 599.921143,93.121269 594.457275,101.770081 
	C589.056702,92.683105 584.216370,84.389198 579.181030,76.215485 
	C578.352234,74.870033 576.698120,73.179955 575.372864,73.132980 
	C567.303955,72.846985 559.219910,72.990211 550.303101,72.990211 
	C560.524597,88.249199 570.264587,102.789406 579.980042,117.292923 
	C569.718994,132.284485 559.488953,147.230728 548.694641,163.001328 
	C557.746155,163.001328 565.384338,163.143005 573.007629,162.869156 
	C574.360168,162.820541 576.053772,161.308929 576.904419,160.020416 
	C582.519409,151.514557 587.946899,142.884964 593.670471,133.928009 
	C598.714233,141.379257 603.330627,148.199127 608.019714,155.736298 
	C609.657410,158.129501 611.125854,162.426300 612.961731,162.589493 
	C621.330933,163.333496 629.803345,162.915939 639.162903,162.915939 
	C637.022339,159.957169 635.592468,157.980789 634.072693,155.330826 
	C632.927673,153.733978 631.782715,152.137115 630.610168,150.568314 
M804.667480,162.576050 
	C804.751343,162.056549 804.835144,161.537048 805.111267,160.095367 
	C805.051819,148.395508 804.992371,136.695633 805.092224,124.070885 
	C805.031494,105.046585 804.970825,86.022278 805.186340,66.210060 
	C806.681213,65.910400 808.174377,65.361397 809.671265,65.351021 
	C820.437500,65.276413 831.204529,65.311081 842.059326,65.311081 
	C842.059326,57.938774 842.059326,51.070385 842.059326,44.217285 
	C809.081421,44.217285 776.369263,44.217285 743.628052,44.217285 
	C743.628052,51.360287 743.628052,58.239998 743.628052,65.494247 
	C756.200378,65.494247 768.452454,65.494247 781.314087,65.494247 
	C781.314087,73.321121 781.314087,80.770828 781.126465,89.009178 
	C781.187622,99.673904 781.248840,110.338631 781.130310,121.924904 
	C781.130310,135.448807 781.130310,148.972717 781.130310,162.597794 
	C788.745117,162.597794 795.997131,162.597794 803.547974,162.744781 
	C803.547974,162.744781 803.852600,162.610352 804.667480,162.576050 
M508.460571,88.282936 
	C508.975983,88.430115 509.491364,88.577293 510.691193,88.986229 
	C518.163147,92.389595 519.369446,94.850639 518.323486,105.193100 
	C512.777893,106.112778 507.018036,106.758499 501.413177,108.067780 
	C492.287170,110.199585 482.848999,111.789207 474.305878,115.409088 
	C464.880859,119.402649 460.520996,127.770454 460.434448,138.321274 
	C460.352600,148.297791 464.255127,156.084183 473.066925,160.379852 
	C478.271149,162.916885 484.341095,164.261917 490.151886,164.844559 
	C500.968597,165.929138 510.770233,162.814468 518.811035,154.521744 
	C519.523010,157.707764 520.090515,160.247543 520.643311,162.721390 
	C528.404541,162.721390 535.822388,162.721390 543.274597,162.721390 
	C543.371887,161.972687 543.504150,161.493576 543.485474,161.020386 
	C542.662354,140.072342 541.852417,119.123718 540.980774,98.177673 
	C540.477905,86.093842 533.940918,77.179001 522.390930,73.015556 
	C512.804382,69.559883 502.975983,68.961731 492.426849,71.074615 
	C491.943604,71.363663 491.460388,71.652710 490.211151,71.924751 
	C480.640106,74.614456 472.471161,79.190880 467.308929,88.961685 
	C466.385651,91.943581 465.368683,94.900734 464.572357,97.916161 
	C464.050354,99.892876 464.381927,101.392792 467.643127,100.574982 
	C468.768066,100.484604 469.892975,100.394226 471.651428,100.597122 
	C472.095306,100.499359 472.539185,100.401596 473.850342,100.591972 
	C476.866089,100.493500 479.881866,100.395020 483.333252,100.625679 
	C484.217163,100.517967 485.101105,100.410255 486.699768,100.357101 
	C486.908234,99.497940 487.116699,98.638771 487.806396,97.335419 
	C488.133087,96.537209 488.459778,95.738998 489.361938,94.566109 
	C494.004944,87.919823 501.005829,87.920898 508.460571,88.282936 
M392.255585,162.783936 
	C393.362762,162.783936 394.469940,162.783936 395.782227,162.783936 
	C395.782227,160.710159 395.781281,158.885468 395.782379,157.060776 
	C395.792023,140.728851 395.632172,124.394417 395.873260,108.065910 
	C396.026764,97.670876 402.404846,91.183937 411.664886,91.227440 
	C421.340790,91.272903 426.437805,97.160316 426.458160,108.364738 
	C426.474487,117.363960 426.451416,126.363243 426.449158,135.362503 
	C426.446899,144.489029 426.448669,153.615570 426.448669,162.783295 
	C434.397827,162.783295 441.833984,162.783295 449.725769,162.783295 
	C449.725769,161.114029 449.726440,159.658157 449.725616,158.202286 
	C449.714630,138.537201 449.736603,118.872025 449.682281,99.207062 
	C449.635193,82.171745 438.576294,70.771645 421.552917,69.986870 
	C409.155670,69.415344 399.510406,74.397713 392.145294,84.905075 
	C386.894714,74.784874 378.490723,70.571236 368.004669,70.001007 
	C357.621582,69.436363 348.764313,73.180573 341.127441,80.606812 
	C340.625580,77.620636 340.248505,75.377029 339.907257,73.346649 
	C331.982758,73.346649 324.412933,73.346649 317.652832,73.346649 
	C317.652832,103.315422 317.652832,132.913040 317.652832,162.621277 
	C326.218506,162.621277 333.904877,162.621277 341.797241,162.621277 
	C341.797241,144.093277 341.749817,125.942665 341.816650,107.792465 
	C341.851624,98.297821 348.376953,91.603096 357.572540,91.378761 
	C366.992462,91.148949 371.719543,96.177345 372.149475,106.901573 
	C372.189484,107.899704 372.155853,108.900780 372.157104,109.900482 
	C372.177948,126.399124 372.191437,142.897781 372.225861,159.396393 
	C372.232910,162.785934 372.268951,162.785858 376.034607,162.012161 
	C381.316071,162.023529 386.597534,162.034897 392.255585,162.783936 
M75.922737,126.577415 
	C76.220055,128.535645 76.452965,130.506165 76.824059,132.450302 
	C87.206490,186.843521 141.234543,227.518814 203.055511,212.421951 
	C255.421799,199.633972 289.488037,150.787247 279.475464,92.791840 
	C271.678253,47.628571 234.103134,13.025087 189.096939,9.278425 
	C149.511459,5.983024 116.784340,20.226011 93.143898,52.587864 
	C77.286980,74.294685 72.346687,99.121635 75.922737,126.577415 
z"/>
<path fill="#040404" opacity="1.000000" stroke="none" 
	d="
M75.885086,126.129005 
	C72.346687,99.121635 77.286980,74.294685 93.143898,52.587864 
	C116.784340,20.226011 149.511459,5.983024 189.096939,9.278425 
	C234.103134,13.025087 271.678253,47.628571 279.475464,92.791840 
	C289.488037,150.787247 255.421799,199.633972 203.055511,212.421951 
	C141.234543,227.518814 87.206490,186.843521 76.824059,132.450302 
	C76.452965,130.506165 76.220055,128.535645 75.885086,126.129005 
M223.696106,97.939644 
	C227.243607,88.615929 227.535889,79.390884 221.789581,70.858803 
	C215.930481,62.159233 206.213516,60.512749 196.704254,58.614578 
	C196.704254,51.981731 196.704254,45.702492 196.704254,39.272881 
	C192.749252,39.272881 189.028290,39.272881 184.944366,39.272881 
	C184.944366,45.935875 184.944366,52.333893 184.944366,58.795197 
	C180.487274,58.795197 176.400589,58.795197 171.908630,58.795197 
	C171.908630,52.177769 171.908630,45.766895 171.908630,39.304344 
	C167.948257,39.304344 164.405243,39.304344 160.501709,39.304344 
	C160.501709,45.993240 160.501709,52.387596 160.501709,59.161575 
	C151.384857,59.161575 142.632401,59.161575 133.874573,59.161575 
	C133.874573,65.278175 133.874573,70.994614 133.874573,77.118484 
	C138.104752,77.118484 142.032272,77.118484 145.762085,77.118484 
	C145.762085,100.236038 145.762085,122.935722 145.762085,146.034470 
	C141.470932,146.034470 137.546097,146.034470 133.880768,146.034470 
	C133.880768,152.034164 133.880768,157.629761 133.880768,163.678604 
	C142.917358,163.678604 151.658875,163.678604 160.613312,163.678604 
	C160.613312,170.595932 160.613312,177.046661 160.613312,183.721588 
	C164.408493,183.721588 167.973648,183.721588 171.991333,183.721588 
	C171.991333,176.925385 171.991333,170.336441 171.991333,163.752502 
	C176.539154,163.752502 180.631348,163.752502 185.156998,163.752502 
	C185.156998,170.525620 185.156998,177.085831 185.156998,183.700089 
	C189.185730,183.700089 192.770294,183.700089 196.818604,183.700089 
	C196.818604,176.715668 196.818604,169.975800 196.818604,163.325073 
	C211.799011,160.958939 225.911118,157.349823 230.605637,141.108521 
	C234.784256,126.652077 230.943527,114.325958 217.228073,106.812248 
	C219.381714,103.900902 221.342926,101.249695 223.696106,97.939644 
z"/>
<path fill="#0A0A0A" opacity="1.000000" stroke="none" 
	d="
M375.114777,162.040985 
	C372.268951,162.785858 372.232910,162.785934 372.225861,159.396393 
	C372.191437,142.897781 372.177948,126.399124 372.157104,109.900482 
	C372.155853,108.900780 372.189484,107.899704 372.149475,106.901573 
	C371.719543,96.177345 366.992462,91.148949 357.572540,91.378761 
	C348.376953,91.603096 341.851624,98.297821 341.816650,107.792465 
	C341.749817,125.942665 341.797241,144.093277 341.797241,162.621277 
	C333.904877,162.621277 326.218506,162.621277 317.652832,162.621277 
	C317.652832,132.913040 317.652832,103.315422 317.652832,73.346649 
	C324.412933,73.346649 331.982758,73.346649 339.907257,73.346649 
	C340.248505,75.377029 340.625580,77.620636 341.127441,80.606812 
	C348.764313,73.180573 357.621582,69.436363 368.004669,70.001007 
	C378.490723,70.571236 386.894714,74.784874 392.145294,84.905075 
	C399.510406,74.397713 409.155670,69.415344 421.552917,69.986870 
	C438.576294,70.771645 449.635193,82.171745 449.682281,99.207062 
	C449.736603,118.872025 449.714630,138.537201 449.725616,158.202286 
	C449.726440,159.658157 449.725769,161.114029 449.725769,162.783295 
	C441.833984,162.783295 434.397827,162.783295 426.448669,162.783295 
	C426.448669,153.615570 426.446899,144.489029 426.449158,135.362503 
	C426.451416,126.363243 426.474487,117.363960 426.458160,108.364738 
	C426.437805,97.160316 421.340790,91.272903 411.664886,91.227440 
	C402.404846,91.183937 396.026764,97.670876 395.873260,108.065910 
	C395.632172,124.394417 395.792023,140.728851 395.782379,157.060776 
	C395.781281,158.885468 395.782227,160.710159 395.782227,162.783936 
	C394.469940,162.783936 393.362762,162.783936 392.342651,162.296875 
	C392.942322,161.217270 393.454987,160.624710 393.978638,159.574768 
	C393.989685,156.212524 393.989685,153.307632 393.989685,150.154907 
	C387.091705,150.824036 381.048309,151.410278 374.953186,151.706909 
	C374.804352,151.284012 374.732452,151.101364 374.601379,151.034378 
	C374.510651,150.988022 374.217285,151.110733 374.219727,151.141769 
	C374.505585,154.775818 374.810699,158.408371 375.114777,162.040985 
M337.168274,146.999542 
	C335.389038,146.695633 333.461426,146.727554 331.860535,146.020050 
	C328.174530,144.391052 324.632660,144.150909 321.003632,145.199905 
	C320.914703,143.806641 320.825775,142.413376 320.736847,141.020096 
	C320.603516,141.033661 320.470154,141.047211 320.336823,141.060776 
	C320.336823,144.344055 320.336823,147.627335 320.336823,150.910614 
	C320.496826,150.908432 320.656830,150.906250 320.816803,150.904068 
	C320.885315,150.271271 320.953796,149.638458 321.828339,149.001343 
	C325.141449,149.258362 328.453949,149.698715 331.767914,149.710251 
	C334.116425,149.718430 337.731812,151.991547 338.568573,146.930511 
	C338.890106,146.625687 339.211639,146.320862 339.533142,146.016022 
	C339.324005,145.834824 339.114838,145.653610 338.905701,145.472412 
	C338.603394,145.981400 338.301086,146.490402 337.168274,146.999542 
M446.989197,149.861359 
	C447.314240,152.682159 446.489410,154.197464 443.216156,154.052826 
	C438.240051,153.832977 433.247101,153.995300 428.349945,153.995300 
	C428.349945,156.258194 428.349945,158.340027 428.349945,160.964096 
	C434.125854,160.964096 439.578094,161.134644 445.001587,160.816086 
	C446.050110,160.754471 447.788849,158.817307 447.840637,157.682861 
	C448.122009,151.519028 447.974304,145.335587 447.974304,139.158905 
	C447.647095,139.160797 447.319885,139.162689 446.992676,139.164597 
	C446.992676,141.442459 446.992676,143.720306 446.069977,145.999527 
	C440.240997,145.999527 434.412018,145.999527 427.707550,145.999527 
	C430.293365,149.511658 432.545074,150.299683 435.901276,149.662598 
	C439.507355,148.978073 443.282654,149.185226 446.989197,149.861359 
M338.169250,152.825989 
	C335.192627,152.745758 332.140717,153.059708 329.254059,152.508453 
	C321.786255,151.082367 319.651733,153.266296 321.870667,160.616547 
	C327.741608,160.616547 333.623444,160.616547 340.424255,160.616547 
	C339.828156,157.576065 339.327515,155.022598 338.169250,152.825989 
M447.001190,124.092026 
	C447.061279,125.371437 447.121338,126.650856 447.181396,127.930267 
	C447.364105,127.925568 447.546844,127.920868 447.729553,127.916168 
	C447.729553,120.961746 447.729553,114.007332 447.729553,107.052910 
	C447.486786,107.048294 447.243988,107.043671 447.001221,107.039055 
	C447.001221,112.422676 447.001221,117.806305 447.001190,124.092026 
M391.581146,140.667023 
	C389.884857,140.997482 388.188538,141.327957 386.492249,141.658417 
	C386.615204,142.186661 386.738159,142.714890 386.861145,143.243118 
	C388.965271,142.737244 391.069427,142.231384 393.173553,141.725510 
	C392.866028,141.283310 392.558502,140.841125 391.581146,140.667023 
M375.933258,144.652878 
	C377.868439,143.919739 379.803619,143.186600 381.738800,142.453461 
	C381.388397,141.818466 381.037964,141.183487 380.687531,140.548508 
	C378.937225,141.773880 377.186920,142.999237 375.933258,144.652878 
M320.446747,110.974602 
	C320.660858,108.696274 320.874969,106.417946 321.089111,104.139618 
	C320.747833,104.126289 320.406586,104.112961 320.065338,104.099632 
	C320.065338,106.202271 320.065338,108.304901 320.446747,110.974602 
M320.997375,129.910797 
	C320.922333,129.285065 320.847290,128.659332 320.772247,128.033600 
	C320.607391,128.041901 320.442566,128.050217 320.277710,128.058533 
	C320.277710,130.027496 320.277710,131.996460 320.277710,133.965424 
	C320.465515,133.971512 320.653351,133.977600 320.841156,133.983673 
	C320.893677,132.869110 320.946198,131.754532 320.997375,129.910797 
M320.985596,116.133568 
	C320.799072,115.780563 320.612549,115.427551 320.426025,115.074524 
	C320.321472,115.194588 320.127594,115.313438 320.125946,115.434914 
	C320.105286,116.961189 320.112396,118.487854 320.112396,120.014412 
	C320.344818,120.019051 320.577271,120.023689 320.809692,120.028328 
	C320.872040,118.959045 320.934357,117.889755 320.985596,116.133568 
z"/>
<path fill="#040404" opacity="1.000000" stroke="none" 
	d="
M951.037598,129.020264 
	C945.682373,146.927094 934.218506,158.871704 915.943665,163.195328 
	C894.168945,168.347000 874.417542,164.323471 858.400024,147.726578 
	C849.682068,138.693207 845.522034,127.201263 844.314636,115.086060 
	C842.844604,100.335289 843.806641,85.690025 850.739990,71.926872 
	C860.238953,53.070793 876.083862,43.959244 896.331543,42.126057 
	C912.612549,40.651997 927.558838,44.652431 939.877502,56.162872 
	C947.344421,63.139935 950.467468,69.126015 952.632202,81.111115 
	C944.018799,81.111115 935.464783,81.111115 926.800659,81.111115 
	C921.089111,68.302956 913.220459,62.683990 901.522339,63.219307 
	C887.015015,63.883167 876.210510,71.301682 872.104675,84.365677 
	C867.060486,100.415337 866.641418,116.338936 876.385864,131.069839 
	C884.702454,143.642044 900.510803,147.670242 914.222351,141.397385 
	C920.665344,138.449768 923.740112,133.068405 926.731995,127.432274 
	C928.692078,128.214981 930.182495,128.910370 931.686646,128.941376 
	C938.134766,129.074310 944.586914,129.011642 951.037598,129.020264 
z"/>
<path fill="#030303" opacity="1.000000" stroke="none" 
	d="
M493.004272,71.191818 
	C502.975983,68.961731 512.804382,69.559883 522.390930,73.015556 
	C533.940918,77.179001 540.477905,86.093842 540.980774,98.177673 
	C541.852417,119.123718 542.662354,140.072342 543.485474,161.020386 
	C543.504150,161.493576 543.371887,161.972687 543.274597,162.721390 
	C535.822388,162.721390 528.404541,162.721390 520.643311,162.721390 
	C520.090515,160.247543 519.523010,157.707764 518.811035,154.521744 
	C510.770233,162.814468 500.968597,165.929138 490.151886,164.844559 
	C484.341095,164.261917 478.271149,162.916885 473.066925,160.379852 
	C464.255127,156.084183 460.352600,148.297791 460.434448,138.321274 
	C460.520996,127.770454 464.880859,119.402649 474.305878,115.409088 
	C482.848999,111.789207 492.287170,110.199585 501.413177,108.067780 
	C507.018036,106.758499 512.777893,106.112778 518.323486,105.193100 
	C519.369446,94.850639 518.163147,92.389595 510.308655,88.584961 
	C509.289551,88.105522 508.652954,88.027351 508.016388,87.949188 
	C501.005829,87.920898 494.004944,87.919823 488.719055,94.863556 
	C487.825836,96.033867 487.575500,96.906738 487.325165,97.779610 
	C487.116699,98.638771 486.908234,99.497940 486.318390,99.991486 
	C484.923889,99.849426 483.910736,100.072990 482.897614,100.296547 
	C479.881866,100.395020 476.866089,100.493500 473.391815,100.116150 
	C472.512085,99.272972 472.090912,98.905609 471.669708,98.538246 
	C471.452454,99.126778 471.235168,99.715317 471.017914,100.303848 
	C469.892975,100.394226 468.768066,100.484604 467.328400,100.068420 
	C467.292603,95.888542 467.571533,92.215240 467.850464,88.541931 
	C472.471161,79.190880 480.640106,74.614456 490.747681,72.165657 
	C491.857605,72.001648 492.430939,71.596741 493.004272,71.191818 
M514.293640,139.742004 
	C519.148438,134.663727 518.669250,128.396393 518.633484,121.798431 
	C515.747253,122.252739 513.266296,122.438126 510.897430,123.054131 
	C503.453888,124.989746 495.932007,126.740501 488.681641,129.257584 
	C484.601410,130.674118 483.693573,134.712372 484.175781,138.839111 
	C484.645050,142.855011 487.317749,144.973328 490.889771,145.950943 
	C499.536896,148.317505 507.243591,146.560837 514.293640,139.742004 
z"/>
<path fill="#050505" opacity="1.000000" stroke="none" 
	d="
M607.947021,155.018997 
	C603.330627,148.199127 598.714233,141.379257 593.670471,133.928009 
	C587.946899,142.884964 582.519409,151.514557 576.904419,160.020416 
	C576.053772,161.308929 574.360168,162.820541 573.007629,162.869156 
	C565.384338,163.143005 557.746155,163.001328 548.694641,163.001328 
	C559.488953,147.230728 569.718994,132.284485 579.980042,117.292923 
	C570.264587,102.789406 560.524597,88.249199 550.303101,72.990211 
	C559.219910,72.990211 567.303955,72.846985 575.372864,73.132980 
	C576.698120,73.179955 578.352234,74.870033 579.181030,76.215485 
	C584.216370,84.389198 589.056702,92.683105 594.457275,101.770081 
	C599.921143,93.121269 605.201477,85.034256 610.162476,76.755890 
	C611.789490,74.040977 613.413696,72.744377 616.768799,72.897423 
	C623.739990,73.215424 630.735901,72.993477 638.614868,72.993477 
	C636.481750,76.307739 634.758240,79.186432 632.840576,81.929352 
	C625.424255,92.537315 618.013550,103.150803 610.436279,113.643387 
	C608.836914,115.858131 608.864563,117.354614 610.388855,119.598221 
	C617.188293,129.606277 623.776855,139.757660 630.130371,150.306946 
	C628.608704,152.193771 627.398132,153.630936 625.648560,155.707993 
	C623.830688,156.190414 620.915405,156.964081 617.793762,157.792511 
	C617.012878,156.705780 616.173889,155.538193 615.504578,154.606735 
	C612.796570,154.754456 610.371826,154.886719 607.947021,155.018997 
z"/>
<path fill="#010101" opacity="1.000000" stroke="none" 
	d="
M738.905884,136.527588 
	C737.539368,140.027267 736.172791,143.526962 734.309082,146.903656 
	C729.741943,146.379303 731.429932,149.431290 731.112854,151.280731 
	C723.846069,159.531860 714.176086,162.633118 703.730835,162.886902 
	C686.806763,163.298080 669.865173,162.988403 652.457825,162.556320 
	C651.274597,161.405457 650.564575,160.681335 649.854492,159.957214 
	C649.758606,159.208359 649.662720,158.459503 650.082458,157.345734 
	C651.364075,156.186401 652.130005,155.391968 652.895996,154.597534 
	C651.870605,154.055786 650.845215,153.514053 649.819824,152.972305 
	C649.716736,142.288559 649.613647,131.604813 650.012939,120.460480 
	C654.835510,119.444321 652.272583,116.043564 652.996582,113.550835 
	C652.998718,110.400421 652.999390,107.700081 653.000000,104.560577 
	C654.000671,101.746986 650.580139,97.510773 656.042908,97.374313 
	C656.724670,99.834351 657.363525,101.917313 658.042603,104.358200 
	C659.402832,105.817879 660.561096,107.328171 662.079346,107.929344 
	C664.598633,108.926842 667.349243,109.339859 670.003418,110.336838 
	C670.334595,111.449265 670.664856,112.223930 670.995728,113.467339 
	C670.997314,122.224548 670.897095,130.515472 671.098267,138.799057 
	C671.132019,140.188019 672.471680,141.545273 673.564575,143.111618 
	C681.205750,143.202621 688.574097,143.764023 695.757751,142.859329 
	C711.399536,140.889389 719.319641,132.840286 713.572449,118.212143 
	C720.439880,117.441063 724.295410,113.464325 727.434387,107.976730 
	C728.682739,107.283516 729.496643,106.610825 730.310608,105.938141 
	C730.864807,106.370651 731.419067,106.803162 731.834900,107.722275 
	C731.465149,108.806053 731.233765,109.403221 731.161987,110.306900 
	C732.311646,110.493217 733.301880,110.373024 734.292053,110.252831 
	C735.265625,111.934006 736.239136,113.615173 736.926514,115.686523 
	C736.407532,117.124832 735.914368,118.192902 735.992798,119.217163 
	C736.192505,121.821640 736.648010,124.406502 737.000610,127.399414 
	C737.001648,128.866821 737.003296,129.934021 737.004395,131.524384 
	C737.637817,133.540909 738.271851,135.034256 738.905884,136.527588 
z"/>
<path fill="#020202" opacity="1.000000" stroke="none" 
	d="
M781.314087,88.220535 
	C781.314087,80.770828 781.314087,73.321121 781.314087,65.494247 
	C768.452454,65.494247 756.200378,65.494247 743.628052,65.494247 
	C743.628052,58.239998 743.628052,51.360287 743.628052,44.217285 
	C776.369263,44.217285 809.081421,44.217285 842.059326,44.217285 
	C842.059326,51.070385 842.059326,57.938774 842.059326,65.311081 
	C831.204529,65.311081 820.437500,65.276413 809.671265,65.351021 
	C808.174377,65.361397 806.681213,65.910400 804.638428,66.623138 
	C803.393738,68.445587 802.155823,69.832336 802.095825,71.268311 
	C801.860962,76.888252 802.028870,82.524048 801.971619,88.153183 
	C801.960205,89.281746 801.617981,90.406952 801.592163,90.560417 
	C798.851257,89.244255 796.580444,87.324142 794.214783,87.199135 
	C789.944458,86.973465 785.617432,87.821121 781.314087,88.220535 
z"/>
<path fill="#010101" opacity="1.000000" stroke="none" 
	d="
M727.239319,93.236481 
	C726.896301,93.606148 726.553223,93.975807 725.674927,94.735924 
	C724.799927,95.851936 724.460144,96.577492 724.120422,97.303040 
	C722.756897,98.308205 721.393372,99.313370 719.775879,100.822662 
	C718.347900,102.218559 717.173950,103.110321 716.000000,103.668434 
	C716.000000,102.889954 716.000000,102.445129 715.892090,101.780716 
	C715.584534,101.287430 715.323181,101.099770 714.832031,100.753479 
	C714.108521,100.340042 713.553040,100.171272 712.780945,99.740860 
	C712.263428,99.372375 711.950012,99.147545 711.663635,99.177879 
	C709.838989,99.371185 707.646423,103.030777 706.332153,99.030029 
	C705.542969,96.627663 704.852417,93.551949 709.046143,92.550491 
	C710.244446,92.264336 711.025330,90.230080 712.350464,88.941261 
	C713.801453,86.256500 714.899475,83.627876 716.252808,80.770531 
	C715.548645,77.706993 717.711426,73.017334 711.751099,72.779968 
	C709.783569,67.557480 706.240601,64.382736 701.071167,64.051102 
	C691.890381,63.462132 682.672546,63.450462 673.058533,63.193657 
	C672.095459,65.458565 671.544067,67.727104 670.611328,69.953857 
	C666.487488,69.608788 662.744995,69.305496 658.635376,69.065689 
	C657.513000,71.753357 656.757751,74.377541 655.741455,77.211823 
	C655.654419,78.614029 655.828430,79.806145 656.001465,81.332275 
	C656.000305,82.111671 656.000122,82.557060 655.617004,82.991730 
	C654.489319,81.654015 653.744629,80.327011 653.000000,78.535080 
	C652.331787,72.046318 651.663452,66.022469 651.279480,59.753456 
	C652.040894,56.339169 652.518005,53.170044 652.996216,49.646561 
	C652.331543,48.528610 651.665771,47.765018 650.819580,46.944271 
	C650.349182,46.646034 650.059143,46.404949 649.769165,46.163868 
	C650.214111,45.430225 650.660767,44.054054 651.103760,44.055218 
	C671.851746,44.109844 692.599304,44.284203 713.521729,44.964729 
	C713.527832,45.963669 713.359192,46.442722 713.190613,46.921780 
	C715.227417,46.904404 717.264221,46.887024 719.301025,46.869637 
	C720.169312,47.203400 721.037537,47.537167 722.064514,48.443916 
	C723.878540,49.961163 725.533936,50.905430 727.189270,51.849697 
	C727.189270,51.849697 727.056274,51.942276 727.064941,52.257202 
	C727.633606,53.896095 728.034119,55.318295 728.779419,56.528133 
	C733.658386,64.447739 735.916687,72.600037 732.311707,81.802017 
	C731.028809,85.076622 730.812256,88.769005 730.108948,92.270683 
	C729.940369,92.560616 729.771790,92.850563 729.109131,93.055664 
	C728.156372,93.059372 727.697876,93.147926 727.239319,93.236481 
z"/>
<path fill="#060606" opacity="1.000000" stroke="none" 
	d="
M781.220276,88.614853 
	C785.617432,87.821121 789.944458,86.973465 794.214783,87.199135 
	C796.580444,87.324142 798.851257,89.244255 801.592163,90.560417 
	C801.617981,90.406952 801.960205,89.281746 801.971619,88.153183 
	C802.028870,82.524048 801.860962,76.888252 802.095825,71.268311 
	C802.155823,69.832336 803.393738,68.445587 804.500366,67.017097 
	C804.970825,86.022278 805.031494,105.046585 804.603943,124.556396 
	C803.409363,126.619980 802.415649,128.137665 802.068359,129.791138 
	C801.618286,131.933502 801.683472,134.184113 801.526794,136.388123 
	C801.121399,136.354904 800.715942,136.321686 800.310547,136.288467 
	C800.205688,135.001953 800.386292,133.602097 799.930847,132.454758 
	C799.199951,130.613647 798.402039,127.977859 796.978821,127.454254 
	C795.427002,126.883286 792.244507,127.714218 791.326355,129.023422 
	C788.652649,132.836105 786.065674,132.131454 783.007019,129.576080 
	C782.438538,126.425568 781.874268,123.714462 781.310059,121.003357 
	C781.248840,110.338631 781.187622,99.673904 781.220276,88.614853 
z"/>
<path fill="#121212" opacity="1.000000" stroke="none" 
	d="
M783.011292,130.015503 
	C786.065674,132.131454 788.652649,132.836105 791.326355,129.023422 
	C792.244507,127.714218 795.427002,126.883286 796.978821,127.454254 
	C798.402039,127.977859 799.199951,130.613647 799.930847,132.454758 
	C800.386292,133.602097 800.205688,135.001953 800.310547,136.288467 
	C800.715942,136.321686 801.121399,136.354904 801.526794,136.388123 
	C801.683472,134.184113 801.618286,131.933502 802.068359,129.791138 
	C802.415649,128.137665 803.409363,126.619980 804.524292,125.018845 
	C804.992371,136.695633 805.051819,148.395508 804.755371,160.757095 
	C804.217163,161.815994 804.034851,162.213165 803.852600,162.610352 
	C803.852600,162.610352 803.547974,162.744781 803.147705,162.291290 
	C797.488770,161.557571 792.230713,161.086639 786.971130,161.070114 
	C783.917297,161.060516 782.902527,160.037857 782.953125,157.005280 
	C783.103088,148.010864 783.009644,139.012390 783.011292,130.015503 
z"/>
<path fill="#070707" opacity="1.000000" stroke="none" 
	d="
M711.997620,88.997406 
	C711.025330,90.230080 710.244446,92.264336 709.046143,92.550491 
	C704.852417,93.551949 705.542969,96.627663 706.332153,99.030029 
	C707.646423,103.030777 709.838989,99.371185 711.663635,99.177879 
	C711.950012,99.147545 712.263428,99.372375 712.641235,100.063156 
	C711.945312,104.553795 712.527344,105.148827 716.000000,104.002075 
	C717.173950,103.110321 718.347900,102.218559 719.800903,101.145844 
	C722.251709,101.663673 724.423523,102.362465 726.802002,103.761169 
	C727.005798,105.639809 727.002930,106.818535 727.000000,107.997253 
	C724.295410,113.464325 720.439880,117.441063 713.308167,118.034088 
	C709.731689,116.329941 706.975830,113.572075 703.901733,113.153763 
	C694.666443,111.897079 685.306885,111.552902 675.950806,110.511131 
	C674.700623,107.872833 673.447876,106.669495 671.665039,109.999237 
	C670.889160,109.999229 670.445801,109.999161 670.002441,109.999084 
	C667.349243,109.339859 664.598633,108.926842 662.079346,107.929344 
	C660.561096,107.328171 659.402832,105.817879 658.416748,104.400421 
	C660.240112,103.756386 661.745483,103.485771 663.212830,103.078239 
	C664.104126,102.830719 664.961853,102.009605 665.791443,102.067337 
	C670.678406,102.407394 675.564880,102.600739 678.899536,107.310265 
	C679.579468,108.270569 682.897827,108.722748 683.715576,107.985207 
	C686.907654,105.106056 690.228455,104.241737 694.092957,105.712715 
	C697.702942,101.253860 697.651001,98.249901 694.420471,92.160141 
	C699.609924,90.568153 704.377625,89.072639 709.537842,87.694832 
	C710.619507,88.207489 711.308594,88.602440 711.997620,88.997406 
M665.606140,105.798683 
	C665.213379,105.794456 664.820618,105.790230 664.427856,105.786003 
	C664.426270,105.948982 664.413757,106.253624 664.424683,106.254471 
	C664.815491,106.284637 665.208496,106.286400 665.606140,105.798683 
z"/>
<path fill="#090909" opacity="1.000000" stroke="none" 
	d="
M607.983398,155.377655 
	C610.371826,154.886719 612.796570,154.754456 615.504578,154.606735 
	C616.173889,155.538193 617.012878,156.705780 617.793762,157.792511 
	C620.915405,156.964081 623.830688,156.190414 625.648560,155.707993 
	C627.398132,153.630936 628.608704,152.193771 630.226868,150.642685 
	C630.634521,150.528748 630.610168,150.568314 630.457825,150.911774 
	C629.966248,152.602997 629.627075,153.950745 629.268616,155.375259 
	C631.087952,155.609146 632.625305,155.806793 634.162659,156.004425 
	C635.592468,157.980789 637.022339,159.957169 639.162903,162.915939 
	C629.803345,162.915939 621.330933,163.333496 612.961731,162.589493 
	C611.125854,162.426300 609.657410,158.129501 607.983398,155.377655 
z"/>
<path fill="#070707" opacity="1.000000" stroke="none" 
	d="
M653.000000,79.000000 
	C653.744629,80.327011 654.489319,81.654015 655.572021,83.372696 
	C654.349731,88.186150 652.871521,92.607376 656.000000,96.997253 
	C650.580139,97.510773 654.000671,101.746986 652.614563,104.645866 
	C650.742188,108.264961 649.410889,111.346123 652.995117,114.000900 
	C652.272583,116.043564 654.835510,119.444321 650.157104,120.015915 
	C649.690918,107.652649 649.583069,95.273354 649.892334,82.321671 
	C651.206238,80.832840 652.103149,79.916420 653.000000,79.000000 
z"/>
<path fill="#020202" opacity="1.000000" stroke="none" 
	d="
M783.007019,129.576080 
	C783.009644,139.012390 783.103088,148.010864 782.953125,157.005280 
	C782.902527,160.037857 783.917297,161.060516 786.971130,161.070114 
	C792.230713,161.086639 797.488770,161.557571 802.998352,162.217804 
	C795.997131,162.597794 788.745117,162.597794 781.130310,162.597794 
	C781.130310,148.972717 781.130310,135.448807 781.220215,121.464127 
	C781.874268,123.714462 782.438538,126.425568 783.007019,129.576080 
z"/>
<path fill="#070707" opacity="1.000000" stroke="none" 
	d="
M730.432617,92.127457 
	C730.812256,88.769005 731.028809,85.076622 732.311707,81.802017 
	C735.916687,72.600037 733.658386,64.447739 728.779419,56.528133 
	C728.034119,55.318295 727.633606,53.896095 727.111328,52.190765 
	C737.623230,59.478001 739.949402,82.634399 730.432617,92.127457 
z"/>
<path fill="#060606" opacity="1.000000" stroke="none" 
	d="
M653.000000,78.535080 
	C652.103149,79.916420 651.206238,80.832840 650.040283,81.876015 
	C649.672852,74.971550 649.574463,67.940338 649.826782,60.459663 
	C650.449890,60.002705 650.722473,59.998848 650.995117,59.998623 
	C651.663452,66.022469 652.331787,72.046318 653.000000,78.535080 
z"/>
<path fill="#1E1E1E" opacity="1.000000" stroke="none" 
	d="
M375.574707,162.026581 
	C374.810699,158.408371 374.505585,154.775818 374.219727,151.141769 
	C374.217285,151.110733 374.510651,150.988022 374.601379,151.034378 
	C374.732452,151.101364 374.804352,151.284012 374.950439,152.156891 
	C375.067017,160.808090 374.256744,159.937790 382.153503,159.992523 
	C386.091431,160.019806 390.029572,160.019806 393.967621,160.032150 
	C393.454987,160.624710 392.942322,161.217270 392.154358,161.928040 
	C386.597534,162.034897 381.316071,162.023529 375.574707,162.026581 
z"/>
<path fill="#121212" opacity="1.000000" stroke="none" 
	d="
M951.017212,129.019547 
	C944.586914,129.011642 938.134766,129.074310 931.686646,128.941376 
	C930.182495,128.910370 928.692078,128.214981 927.096191,127.433533 
	C934.690613,126.975197 942.384216,126.908607 950.544922,127.267433 
	C951.016357,128.144653 951.020752,128.596466 951.025146,129.048279 
	C951.025146,129.048279 950.996887,129.018845 951.017212,129.019547 
z"/>
<path fill="#070707" opacity="1.000000" stroke="none" 
	d="
M651.279419,59.753460 
	C650.722473,59.998848 650.449890,60.002705 649.972900,60.014656 
	C649.665039,55.687187 649.561646,51.355263 649.613647,46.593605 
	C650.059143,46.404949 650.349182,46.646034 650.824585,47.297615 
	C651.671692,48.472382 652.333435,49.236652 652.995117,50.000923 
	C652.518005,53.170044 652.040894,56.339169 651.279419,59.753460 
z"/>
<path fill="#080808" opacity="1.000000" stroke="none" 
	d="
M467.579712,88.751808 
	C467.571533,92.215240 467.292603,95.888542 467.020081,99.919212 
	C464.381927,101.392792 464.050354,99.892876 464.572357,97.916161 
	C465.368683,94.900734 466.385651,91.943581 467.579712,88.751808 
z"/>
<path fill="#070707" opacity="1.000000" stroke="none" 
	d="
M737.001099,126.999222 
	C736.648010,124.406502 736.192505,121.821640 735.992798,119.217163 
	C735.914368,118.192902 736.407532,117.124832 737.004333,116.051041 
	C738.246765,119.410408 739.125183,122.795441 739.698242,126.478439 
	C738.595642,126.850685 737.798340,126.924957 737.001099,126.999222 
z"/>
<path fill="#050505" opacity="1.000000" stroke="none" 
	d="
M634.117676,155.667633 
	C632.625305,155.806793 631.087952,155.609146 629.268616,155.375259 
	C629.627075,153.950745 629.966248,152.602997 630.471619,150.897751 
	C631.782715,152.137115 632.927673,153.733978 634.117676,155.667633 
z"/>
<path fill="#070707" opacity="1.000000" stroke="none" 
	d="
M649.670471,153.283752 
	C650.845215,153.514053 651.870605,154.055786 652.895996,154.597534 
	C652.130005,155.391968 651.364075,156.186401 650.216614,156.986481 
	C649.730408,155.859818 649.625732,154.727509 649.670471,153.283752 
z"/>
<path fill="#070707" opacity="1.000000" stroke="none" 
	d="
M739.033325,136.313477 
	C738.271851,135.034256 737.637817,133.540909 737.363037,131.524078 
	C738.440002,131.000107 739.157715,130.999619 739.875427,130.999130 
	C739.637268,132.699203 739.399048,134.399277 739.033325,136.313477 
z"/>
<path fill="#070707" opacity="1.000000" stroke="none" 
	d="
M719.101685,46.559982 
	C717.264221,46.887024 715.227417,46.904404 713.190613,46.921780 
	C713.359192,46.442722 713.527832,45.963669 713.848022,45.243324 
	C715.633850,45.418129 717.268127,45.834225 719.101685,46.559982 
z"/>
<path fill="#060606" opacity="1.000000" stroke="none" 
	d="
M739.989990,130.607666 
	C739.157715,130.999619 738.440002,131.000107 737.363647,131.000916 
	C737.003296,129.934021 737.001648,128.866821 737.000610,127.399429 
	C737.798340,126.924957 738.595642,126.850685 739.629028,126.880028 
	C739.944946,128.061157 740.024780,129.138687 739.989990,130.607666 
z"/>
<path fill="#060606" opacity="1.000000" stroke="none" 
	d="
M727.434387,107.976730 
	C727.002930,106.818535 727.005798,105.639809 727.016602,104.018005 
	C728.043701,104.181137 729.062927,104.787369 730.196411,105.665871 
	C729.496643,106.610825 728.682739,107.283516 727.434387,107.976730 
z"/>
<path fill="#070707" opacity="1.000000" stroke="none" 
	d="
M731.411743,151.156326 
	C731.429932,149.431290 729.741943,146.379303 734.000061,147.086426 
	C733.362427,148.605438 732.536560,149.818680 731.411743,151.156326 
z"/>
<path fill="#070707" opacity="1.000000" stroke="none" 
	d="
M727.056274,51.535530 
	C725.533936,50.905430 723.878540,49.961163 722.293701,48.615578 
	C723.883911,49.216629 725.403564,50.218994 727.056274,51.535530 
z"/>
<path fill="#070707" opacity="1.000000" stroke="none" 
	d="
M649.713562,160.237518 
	C650.564575,160.681335 651.274597,161.405457 651.994873,162.481079 
	C651.194214,162.061020 650.383423,161.289429 649.713562,160.237518 
z"/>
<path fill="#080808" opacity="1.000000" stroke="none" 
	d="
M483.115417,100.461113 
	C483.910736,100.072990 484.923889,99.849426 485.960999,99.964203 
	C485.101105,100.410255 484.217163,100.517967 483.115417,100.461113 
z"/>
<path fill="#070707" opacity="1.000000" stroke="none" 
	d="
M734.258728,109.993332 
	C733.301880,110.373024 732.311646,110.493217 731.488586,110.270729 
	C732.139709,109.532585 732.623657,109.137115 733.107666,108.741638 
	C733.480286,109.072357 733.852844,109.403091 734.258728,109.993332 
z"/>
<path fill="#060606" opacity="1.000000" stroke="none" 
	d="
M733.065857,108.519737 
	C732.623657,109.137115 732.139709,109.532585 731.329102,109.964218 
	C731.233765,109.403221 731.465149,108.806053 731.983765,108.046204 
	C732.611145,107.859627 732.862183,107.997726 733.065857,108.519737 
z"/>
<path fill="#080808" opacity="1.000000" stroke="none" 
	d="
M471.334656,100.450485 
	C471.235168,99.715317 471.452454,99.126778 471.669708,98.538246 
	C472.090912,98.905609 472.512085,99.272972 472.958191,99.972084 
	C472.539185,100.401596 472.095306,100.499359 471.334656,100.450485 
z"/>
<path fill="#070707" opacity="1.000000" stroke="none" 
	d="
M724.447510,97.211540 
	C724.460144,96.577492 724.799927,95.851936 725.462280,95.060066 
	C725.448120,95.702515 725.111389,96.411278 724.447510,97.211540 
z"/>
<path fill="#080808" opacity="1.000000" stroke="none" 
	d="
M487.565796,97.557510 
	C487.575500,96.906738 487.825836,96.033867 488.431335,95.050896 
	C488.459778,95.738998 488.133087,96.537209 487.565796,97.557510 
z"/>
<path fill="#080808" opacity="1.000000" stroke="none" 
	d="
M508.238464,88.116058 
	C508.652954,88.027351 509.289551,88.105522 509.966431,88.454086 
	C509.491364,88.577293 508.975983,88.430115 508.238464,88.116058 
z"/>
<path fill="#080808" opacity="1.000000" stroke="none" 
	d="
M492.715576,71.133224 
	C492.430939,71.596741 491.857605,72.001648 491.130707,72.174164 
	C491.460388,71.652710 491.943604,71.363663 492.715576,71.133224 
z"/>
<path fill="#070707" opacity="1.000000" stroke="none" 
	d="
M727.447998,93.279228 
	C727.697876,93.147926 728.156372,93.059372 728.852905,93.002670 
	C728.612854,93.130348 728.134766,93.226166 727.447998,93.279228 
z"/>
<path fill="#040404" opacity="1.000000" stroke="none" 
	d="
M951.277649,128.863373 
	C951.020752,128.596466 951.016357,128.144653 951.006592,127.353928 
	C951.177490,127.569481 951.353821,128.123962 951.277649,128.863373 
z"/>
<path fill="#010101" opacity="1.000000" stroke="none" 
	d="
M804.260010,162.593201 
	C804.034851,162.213165 804.217163,161.815994 804.659180,161.218201 
	C804.835144,161.537048 804.751343,162.056549 804.260010,162.593201 
z"/>
<path fill="#FAFAFA" opacity="1.000000" stroke="none" 
	d="
M223.500122,98.269066 
	C221.342926,101.249695 219.381714,103.900902 217.228073,106.812248 
	C230.943527,114.325958 234.784256,126.652077 230.605637,141.108521 
	C225.911118,157.349823 211.799011,160.958939 196.818604,163.325073 
	C196.818604,169.975800 196.818604,176.715668 196.818604,183.700089 
	C192.770294,183.700089 189.185730,183.700089 185.156998,183.700089 
	C185.156998,177.085831 185.156998,170.525620 185.156998,163.752502 
	C180.631348,163.752502 176.539154,163.752502 171.991333,163.752502 
	C171.991333,170.336441 171.991333,176.925385 171.991333,183.721588 
	C167.973648,183.721588 164.408493,183.721588 160.613312,183.721588 
	C160.613312,177.046661 160.613312,170.595932 160.613312,163.678604 
	C151.658875,163.678604 142.917358,163.678604 133.880768,163.678604 
	C133.880768,157.629761 133.880768,152.034164 133.880768,146.034470 
	C137.546097,146.034470 141.470932,146.034470 145.762085,146.034470 
	C145.762085,122.935722 145.762085,100.236038 145.762085,77.118484 
	C142.032272,77.118484 138.104752,77.118484 133.874573,77.118484 
	C133.874573,70.994614 133.874573,65.278175 133.874573,59.161575 
	C142.632401,59.161575 151.384857,59.161575 160.501709,59.161575 
	C160.501709,52.387596 160.501709,45.993240 160.501709,39.304344 
	C164.405243,39.304344 167.948257,39.304344 171.908630,39.304344 
	C171.908630,45.766895 171.908630,52.177769 171.908630,58.795197 
	C176.400589,58.795197 180.487274,58.795197 184.944366,58.795197 
	C184.944366,52.333893 184.944366,45.935875 184.944366,39.272881 
	C189.028290,39.272881 192.749252,39.272881 196.704254,39.272881 
	C196.704254,45.702492 196.704254,51.981731 196.704254,58.614578 
	C206.213516,60.512749 215.930481,62.159233 221.789581,70.858803 
	C227.535889,79.390884 227.243607,88.615929 223.500122,98.269066 
M181.401871,145.794830 
	C188.082550,144.828171 194.914886,144.434586 201.397308,142.718826 
	C206.871094,141.270020 209.473709,136.205460 209.133942,130.772293 
	C208.805145,125.514618 206.410095,121.837540 200.244110,121.047386 
	C189.313492,119.646675 178.232101,119.422607 167.222595,118.706772 
	C167.222595,128.469696 167.222595,137.045868 167.222595,145.797714 
	C171.825470,145.797714 176.127884,145.797714 181.401871,145.794830 
M192.026550,77.004486 
	C183.756393,77.004486 175.486221,77.004486 167.235947,77.004486 
	C167.235947,85.076462 167.235947,92.644928 167.235947,100.015182 
	C175.041763,100.015182 182.540024,100.220352 190.020172,99.940712 
	C194.750961,99.763855 199.220551,98.289558 201.979736,93.966972 
	C206.007782,87.656563 203.685928,78.593552 192.026550,77.004486 
z"/>
<path fill="#111111" opacity="1.000000" stroke="none" 
	d="
M393.978638,159.574768 
	C390.029572,160.019806 386.091431,160.019806 382.153503,159.992523 
	C374.256744,159.937790 375.067017,160.808090 375.002136,152.446487 
	C381.048309,151.410278 387.091705,150.824036 393.989685,150.154907 
	C393.989685,153.307632 393.989685,156.212524 393.978638,159.574768 
z"/>
<path fill="#161616" opacity="1.000000" stroke="none" 
	d="
M338.498047,152.647552 
	C339.327515,155.022598 339.828156,157.576065 340.424255,160.616547 
	C333.623444,160.616547 327.741608,160.616547 321.870667,160.616547 
	C319.651733,153.266296 321.786255,151.082367 329.254059,152.508453 
	C332.140717,153.059708 335.192627,152.745758 338.498047,152.647552 
z"/>
<path fill="#161616" opacity="1.000000" stroke="none" 
	d="
M446.992676,145.998169 
	C446.992676,143.720306 446.992676,141.442459 446.992676,139.164597 
	C447.319885,139.162689 447.647095,139.160797 447.974304,139.158905 
	C447.974304,145.335587 448.122009,151.519028 447.840637,157.682861 
	C447.788849,158.817307 446.050110,160.754471 445.001587,160.816086 
	C439.578094,161.134644 434.125854,160.964096 428.349945,160.964096 
	C428.349945,158.340027 428.349945,156.258194 428.349945,153.995300 
	C433.247101,153.995300 438.240051,153.832977 443.216156,154.052826 
	C446.489410,154.197464 447.314240,152.682159 446.991943,149.056656 
	C446.994049,147.500687 446.993378,146.749435 446.992676,145.998169 
z"/>
<path fill="#0C0C0C" opacity="1.000000" stroke="none" 
	d="
M321.010071,145.996948 
	C324.632660,144.150909 328.174530,144.391052 331.860535,146.020050 
	C333.461426,146.727554 335.389038,146.695633 337.584137,146.999771 
	C338.000000,147.000000 338.001221,147.000610 338.001221,147.000610 
	C337.731812,151.991547 334.116425,149.718430 331.767914,149.710251 
	C328.453949,149.698715 325.141449,149.258362 321.418152,148.627365 
	C321.008667,147.501236 321.009369,146.749100 321.010071,145.996948 
z"/>
<path fill="#0B0B0B" opacity="1.000000" stroke="none" 
	d="
M446.531311,145.998840 
	C446.993378,146.749435 446.994049,147.500687 446.989441,148.627625 
	C443.282654,149.185226 439.507355,148.978073 435.901276,149.662598 
	C432.545074,150.299683 430.293365,149.511658 427.707550,145.999527 
	C434.412018,145.999527 440.240997,145.999527 446.531311,145.998840 
z"/>
<path fill="#0C0C0C" opacity="1.000000" stroke="none" 
	d="
M447.001221,123.640976 
	C447.001221,117.806305 447.001221,112.422676 447.001221,107.039055 
	C447.243988,107.043671 447.486786,107.048294 447.729553,107.052910 
	C447.729553,114.007332 447.729553,120.961746 447.729553,127.916168 
	C447.546844,127.920868 447.364105,127.925568 447.181396,127.930267 
	C447.121338,126.650856 447.061279,125.371437 447.001221,123.640976 
z"/>
<path fill="#090909" opacity="1.000000" stroke="none" 
	d="
M391.916077,140.532974 
	C392.558502,140.841125 392.866028,141.283310 393.173553,141.725510 
	C391.069427,142.231384 388.965271,142.737244 386.861145,143.243118 
	C386.738159,142.714890 386.615204,142.186661 386.492249,141.658417 
	C388.188538,141.327957 389.884857,140.997482 391.916077,140.532974 
z"/>
<path fill="#090909" opacity="1.000000" stroke="none" 
	d="
M375.684937,144.438751 
	C377.186920,142.999237 378.937225,141.773880 380.687531,140.548508 
	C381.037964,141.183487 381.388397,141.818466 381.738800,142.453461 
	C379.803619,143.186600 377.868439,143.919739 375.684937,144.438751 
z"/>
<path fill="#161616" opacity="1.000000" stroke="none" 
	d="
M321.006836,145.598419 
	C321.009369,146.749100 321.008667,147.501236 321.015106,148.629517 
	C320.953796,149.638458 320.885315,150.271271 320.816803,150.904068 
	C320.656830,150.906250 320.496826,150.908432 320.336823,150.910614 
	C320.336823,147.627335 320.336823,144.344055 320.336823,141.060776 
	C320.470154,141.047211 320.603516,141.033661 320.736847,141.020096 
	C320.825775,142.413376 320.914703,143.806641 321.006836,145.598419 
z"/>
<path fill="#0C0C0C" opacity="1.000000" stroke="none" 
	d="
M320.256042,110.691071 
	C320.065338,108.304901 320.065338,106.202271 320.065338,104.099632 
	C320.406586,104.112961 320.747833,104.126289 321.089111,104.139618 
	C320.874969,106.417946 320.660858,108.696274 320.256042,110.691071 
z"/>
<path fill="#0C0C0C" opacity="1.000000" stroke="none" 
	d="
M320.998047,130.275391 
	C320.946198,131.754532 320.893677,132.869110 320.841156,133.983673 
	C320.653351,133.977600 320.465515,133.971512 320.277710,133.965424 
	C320.277710,131.996460 320.277710,130.027496 320.277710,128.058533 
	C320.442566,128.050217 320.607391,128.041901 320.772247,128.033600 
	C320.847290,128.659332 320.922333,129.285065 320.998047,130.275391 
z"/>
<path fill="#0C0C0C" opacity="1.000000" stroke="none" 
	d="
M320.991150,116.477020 
	C320.934357,117.889755 320.872040,118.959045 320.809692,120.028328 
	C320.577271,120.023689 320.344818,120.019051 320.112396,120.014412 
	C320.112396,118.487854 320.105286,116.961189 320.125946,115.434914 
	C320.127594,115.313438 320.321472,115.194588 320.426025,115.074532 
	C320.612549,115.427551 320.799072,115.780563 320.991150,116.477020 
z"/>
<path fill="#0C0C0C" opacity="1.000000" stroke="none" 
	d="
M337.999390,146.999695 
	C338.301086,146.490402 338.603394,145.981400 338.905701,145.472412 
	C339.114838,145.653610 339.324005,145.834824 339.533142,146.016022 
	C339.211639,146.320862 338.890106,146.625687 338.284912,146.965561 
	C338.001221,147.000610 338.000000,147.000000 337.999390,146.999695 
z"/>
<path fill="#F8F8F8" opacity="1.000000" stroke="none" 
	d="
M514.035706,140.000977 
	C507.243591,146.560837 499.536896,148.317505 490.889771,145.950943 
	C487.317749,144.973328 484.645050,142.855011 484.175781,138.839111 
	C483.693573,134.712372 484.601410,130.674118 488.681641,129.257584 
	C495.932007,126.740501 503.453888,124.989746 510.897430,123.054131 
	C513.266296,122.438126 515.747253,122.252739 518.633484,121.798431 
	C518.669250,128.396393 519.148438,134.663727 514.035706,140.000977 
z"/>
<path fill="#F8F8F8" opacity="1.000000" stroke="none" 
	d="
M675.995850,110.852707 
	C685.306885,111.552902 694.666443,111.897079 703.901733,113.153763 
	C706.975830,113.572075 709.731689,116.329941 712.897278,118.196320 
	C719.319641,132.840286 711.399536,140.889389 695.757751,142.859329 
	C688.574097,143.764023 681.205750,143.202621 673.628357,142.651932 
	C673.252686,132.333099 673.169800,122.668404 673.180054,112.703964 
	C673.287109,111.985962 673.301025,111.567703 673.653259,111.146118 
	C674.659729,111.046097 675.327759,110.949402 675.995850,110.852707 
z"/>
<path fill="#060606" opacity="1.000000" stroke="none" 
	d="
M656.042908,97.374313 
	C652.871521,92.607376 654.349731,88.186150 655.954956,83.383408 
	C656.000122,82.557060 656.000305,82.111671 656.261414,81.121567 
	C656.349060,79.385132 656.175781,78.193420 656.002502,77.001724 
	C656.757751,74.377541 657.513000,71.753357 658.909180,69.351395 
	C664.129517,69.798225 668.743591,69.954636 670.083374,75.744659 
	C670.117615,75.892555 670.682556,75.917641 671.001221,76.467094 
	C671.003235,80.743042 670.821655,84.565781 671.109985,88.352722 
	C671.203186,89.576462 672.530273,90.706245 673.662292,91.942825 
	C675.019470,92.119728 676.007263,92.232819 677.057190,92.699295 
	C678.971313,97.936874 682.385620,99.615654 686.294983,97.214989 
	C688.403320,95.920280 690.114380,93.978661 692.329651,92.228516 
	C693.102661,92.170952 693.550659,92.213783 693.998657,92.256615 
	C697.651001,98.249901 697.702942,101.253860 694.092957,105.712715 
	C690.228455,104.241737 686.907654,105.106056 683.715576,107.985207 
	C682.897827,108.722748 679.579468,108.270569 678.899536,107.310265 
	C675.564880,102.600739 670.678406,102.407394 665.791443,102.067337 
	C664.961853,102.009605 664.104126,102.830719 663.212830,103.078239 
	C661.745483,103.485771 660.240112,103.756386 658.376587,104.042511 
	C657.363525,101.917313 656.724670,99.834351 656.042908,97.374313 
z"/>
<path fill="#0C0C0C" opacity="1.000000" stroke="none" 
	d="
M673.086914,113.003708 
	C673.169800,122.668404 673.252686,132.333099 673.271729,142.457489 
	C672.471680,141.545273 671.132019,140.188019 671.098267,138.799057 
	C670.897095,130.515472 670.997314,122.224548 671.344482,113.468445 
	C672.157349,113.001770 672.622131,113.002739 673.086914,113.003708 
z"/>
<path fill="#060606" opacity="1.000000" stroke="none" 
	d="
M652.996582,113.550835 
	C649.410889,111.346123 650.742188,108.264961 652.614563,105.085022 
	C652.999390,107.700081 652.998718,110.400421 652.996582,113.550835 
z"/>
<path fill="#060606" opacity="1.000000" stroke="none" 
	d="
M673.180054,112.703964 
	C672.622131,113.002739 672.157349,113.001770 671.343811,112.999695 
	C670.664856,112.223930 670.334595,111.449265 670.003418,110.336838 
	C670.445801,109.999161 670.889160,109.999229 671.823669,110.253319 
	C672.648132,110.721382 672.981506,110.935425 673.314880,111.149460 
	C673.301025,111.567703 673.287109,111.985962 673.180054,112.703964 
z"/>
<path fill="#FAFAFA" opacity="1.000000" stroke="none" 
	d="
M694.420471,92.160141 
	C693.550659,92.213783 693.102661,92.170952 691.869873,92.144165 
	C686.388489,92.222115 681.691772,92.284012 676.995117,92.345909 
	C676.007263,92.232819 675.019470,92.119728 673.699585,91.483047 
	C673.401733,81.705383 673.435974,72.451332 673.470215,63.197281 
	C682.672546,63.450462 691.890381,63.462132 701.071167,64.051102 
	C706.240601,64.382736 709.783569,67.557480 711.767822,73.234344 
	C712.007996,76.924583 711.959717,79.948311 711.631836,83.171173 
	C710.616577,84.772583 709.880920,86.174866 709.145264,87.577133 
	C704.377625,89.072639 699.609924,90.568153 694.420471,92.160141 
z"/>
<path fill="#111111" opacity="1.000000" stroke="none" 
	d="
M673.058533,63.193657 
	C673.435974,72.451332 673.401733,81.705383 673.330200,91.419220 
	C672.530273,90.706245 671.203186,89.576462 671.109985,88.352722 
	C670.821655,84.565781 671.003235,80.743042 671.002563,76.038437 
	C670.999451,73.427002 670.996033,71.711311 670.992676,69.995636 
	C671.544067,67.727104 672.095459,65.458565 673.058533,63.193657 
z"/>
<path fill="#070707" opacity="1.000000" stroke="none" 
	d="
M711.911499,82.972046 
	C711.959717,79.948311 712.007996,76.924583 712.039551,73.446472 
	C717.711426,73.017334 715.548645,77.706993 715.919250,80.820023 
	C714.190796,81.722847 713.051147,82.347443 711.911499,82.972046 
z"/>
<path fill="#070707" opacity="1.000000" stroke="none" 
	d="
M670.611328,69.953857 
	C670.996033,71.711311 670.999451,73.427002 671.001404,75.571342 
	C670.682556,75.917641 670.117615,75.892555 670.083374,75.744659 
	C668.743591,69.954636 664.129517,69.798225 659.276245,69.287918 
	C662.744995,69.305496 666.487488,69.608788 670.611328,69.953857 
z"/>
<path fill="#060606" opacity="1.000000" stroke="none" 
	d="
M711.631836,83.171173 
	C713.051147,82.347443 714.190796,81.722847 715.664001,81.048752 
	C714.899475,83.627876 713.801453,86.256500 712.350464,88.941254 
	C711.308594,88.602440 710.619507,88.207489 709.537842,87.694839 
	C709.880920,86.174866 710.616577,84.772583 711.631836,83.171173 
z"/>
<path fill="#060606" opacity="1.000000" stroke="none" 
	d="
M716.000000,103.668411 
	C712.527344,105.148827 711.945312,104.553795 712.857910,100.324799 
	C713.553040,100.171272 714.108521,100.340042 714.940430,100.972740 
	C715.416321,101.710060 715.677429,101.897942 716.000000,102.000305 
	C716.000000,102.445129 716.000000,102.889954 716.000000,103.668411 
z"/>
<path fill="#060606" opacity="1.000000" stroke="none" 
	d="
M652.996216,49.646561 
	C652.333435,49.236652 651.671692,48.472382 651.005005,47.354767 
	C651.665771,47.765018 652.331543,48.528610 652.996216,49.646561 
z"/>
<path fill="#070707" opacity="1.000000" stroke="none" 
	d="
M655.741455,77.211807 
	C656.175781,78.193420 656.349060,79.385132 656.262451,80.787552 
	C655.828430,79.806145 655.654419,78.614029 655.741455,77.211807 
z"/>
<path fill="#070707" opacity="1.000000" stroke="none" 
	d="
M715.892090,101.780716 
	C715.677429,101.897942 715.416321,101.710060 715.108398,101.217407 
	C715.323181,101.099770 715.584534,101.287430 715.892090,101.780716 
z"/>
<path fill="#010101" opacity="1.000000" stroke="none" 
	d="
M673.653259,111.146126 
	C672.981506,110.935425 672.648132,110.721382 672.156189,110.253265 
	C673.447876,106.669495 674.700623,107.872833 675.950806,110.511131 
	C675.327759,110.949402 674.659729,111.046097 673.653259,111.146126 
z"/>
<path fill="#060606" opacity="1.000000" stroke="none" 
	d="
M665.603638,106.045410 
	C665.208496,106.286400 664.815491,106.284637 664.424683,106.254471 
	C664.413757,106.253624 664.426270,105.948982 664.427856,105.786003 
	C664.820618,105.790230 665.213379,105.794456 665.603638,106.045410 
z"/>
<path fill="#080808" opacity="1.000000" stroke="none" 
	d="
M180.916077,145.796265 
	C176.127884,145.797714 171.825470,145.797714 167.222595,145.797714 
	C167.222595,137.045868 167.222595,128.469696 167.222595,118.706772 
	C178.232101,119.422607 189.313492,119.646675 200.244110,121.047386 
	C206.410095,121.837540 208.805145,125.514618 209.133942,130.772293 
	C209.473709,136.205460 206.871094,141.270020 201.397308,142.718826 
	C194.914886,144.434586 188.082550,144.828171 180.916077,145.796265 
z"/>
<path fill="#040404" opacity="1.000000" stroke="none" 
	d="
M192.471100,77.016083 
	C203.685928,78.593552 206.007782,87.656563 201.979736,93.966972 
	C199.220551,98.289558 194.750961,99.763855 190.020172,99.940712 
	C182.540024,100.220352 175.041763,100.015182 167.235947,100.015182 
	C167.235947,92.644928 167.235947,85.076462 167.235947,77.004486 
	C175.486221,77.004486 183.756393,77.004486 192.471100,77.016083 
z"/>
<path fill="#070707" opacity="1.000000" stroke="none" 
	d="
M677.057190,92.699295 
	C681.691772,92.284012 686.388489,92.222115 691.544922,92.244568 
	C690.114380,93.978661 688.403320,95.920280 686.294983,97.214989 
	C682.385620,99.615654 678.971313,97.936874 677.057190,92.699295 
z"/>
</svg>