<svg width="820" height="169" viewBox="0 0 820 169" fill="none" xmlns="http://www.w3.org/2000/svg">
<path d="M8.85051 146.756C7.2486 146.041 6.35968 144.619 6.18193 142.303C5.64673 130.912 5.46892 122.369 5.64672 114.537C5.82452 107.595 8.13939 107.061 10.2746 113.648C17.3933 134.827 28.9603 148.535 45.1534 148.535C57.789 148.535 65.0854 140.347 65.0854 127.889C65.0854 96.7363 8.85051 84.2776 8.85051 46.5422C8.85051 28.9229 22.9083 16.2827 44.7978 16.2827C54.0518 16.2827 64.1947 18.5981 69.7115 21.447C72.0245 22.6917 72.9153 24.2922 73.0931 26.0741C73.8042 32.8387 74.3394 45.2974 74.5172 53.129C74.5172 57.7561 71.669 59.0008 70.0671 54.196C62.7706 32.1237 54.0518 22.1583 42.307 22.1583C33.2308 22.1583 24.688 28.0301 24.688 38.5328C24.688 68.97 80.5674 81.9659 80.5674 119.879C80.5674 144.441 62.5928 154.766 43.0181 154.766C29.3159 154.766 17.7489 151.206 8.85051 146.756Z" fill="black"/>
<path d="M97.1151 135.898L97.2929 75.3789C97.1151 69.5033 96.0466 65.4097 86.6148 65.0541C82.1665 64.8762 81.2757 62.0274 86.0814 60.9605C96.9373 58.6451 105.656 50.4578 109.038 37.11C110.284 31.9457 113.486 32.3014 113.486 36.9322L113.664 52.7732C113.664 58.4672 115.621 60.427 120.605 60.427H137.333C142.137 60.427 136.977 66.6582 131.816 66.6582C127.901 66.6582 125.233 66.4766 120.605 66.6582C115.443 66.836 113.843 68.792 113.843 73.4191C113.664 77.8684 113.486 116.852 113.843 131.804C113.843 142.481 118.114 145.863 123.631 145.863C128.079 145.863 131.461 144.441 136.8 140.347C139.646 138.209 141.959 141.058 139.29 143.551C133.596 148.89 127.19 154.765 115.443 154.765C102.097 154.765 97.1151 148.179 97.1151 135.898Z" fill="black"/>
<path d="M167.226 58.2896C169.539 57.0449 171.674 57.934 171.496 60.2494C171.141 64.343 170.607 78.7614 170.607 81.7844C170.607 83.0329 171.318 83.3885 172.209 83.3885C173.098 83.3885 173.276 83.0329 173.809 81.7844C182.352 61.672 192.851 57.7561 199.436 57.7561C203.529 57.7561 206.733 60.7828 206.02 66.1212C205.308 73.5971 201.927 76.6238 195.166 76.8017C180.928 77.1573 171.496 83.7442 171.496 105.816L171.674 133.938C171.674 141.414 175.945 146.934 187.513 148.179C192.495 148.712 192.495 152.45 187.513 152.095C180.217 151.739 172.565 150.85 163.311 150.85C155.124 150.85 149.073 152.095 141.421 152.095C136.262 152.095 135.727 148.89 141.421 148.179C150.675 146.934 153.879 143.196 154.412 134.116C154.946 124.506 154.946 116.319 154.946 106.705C154.946 97.0956 154.412 82.3215 153.701 76.8016C152.988 71.2854 149.431 69.1478 144.447 68.6144C140.355 68.0809 139.286 65.0542 144.447 64.1651C150.675 63.0981 159.929 61.1385 167.226 58.2896Z" fill="black"/>
<path d="M220.075 127.533V80.1843C220.075 71.4636 216.16 69.1482 211.356 68.6147C206.373 68.0813 205.484 64.8768 211.356 63.9877C218.473 62.9207 227.194 61.4944 233.066 58.6456C236.448 56.8674 238.583 57.223 238.049 62.2058C235.914 85.1671 236.625 95.4919 236.625 105.105L236.981 125.218C237.336 135.721 240.896 142.304 250.683 142.304C261.715 142.304 272.393 131.09 273.638 110.444C274.175 100.475 273.997 90.5092 273.997 78.4061C273.997 71.4636 269.367 68.9704 263.852 68.437C259.582 68.0813 258.693 65.0546 263.852 64.1655C271.149 62.9208 281.471 61.1388 287.342 58.29C289.479 57.0452 291.794 57.9344 291.612 60.2497C290.545 73.5975 290.545 95.4919 290.545 105.105C290.545 115.071 291.079 129.311 291.794 134.828C292.505 140.348 296.064 143.196 301.579 143.374C305.672 143.73 306.383 146.757 301.401 147.646C294.283 148.89 284.319 151.028 278.445 153.518C276.308 154.588 273.997 154.055 274.175 151.739C274.53 147.646 275.064 134.472 275.064 131.449C275.064 130.201 274.708 129.134 273.819 129.134C272.926 129.134 272.215 130.201 271.682 131.449C264.563 148.179 256.022 154.766 243.031 154.766C232.177 154.766 220.075 149.602 220.075 127.533Z" fill="black"/>
<path d="M303.713 106.883C303.713 77.8683 322.932 57.7559 345.533 57.7559C356.566 57.7559 365.463 62.5608 370.267 69.6811C374.359 75.201 368.311 83.2104 361.192 83.2104C351.048 83.2104 352.474 62.9201 341.262 62.9201C329.162 62.9201 320.795 77.8683 320.795 101.367C320.795 130.2 332.899 142.481 347.133 142.303C356.033 142.125 364.218 137.854 371.515 128.777C374.719 124.862 377.03 125.929 373.826 131.982C366.352 145.685 355.318 154.765 341.262 154.765C320.973 154.765 303.713 140.525 303.713 106.883Z" fill="black"/>
<path d="M388.952 135.898L389.13 75.3789C388.952 69.5033 387.885 65.4097 378.455 65.0541C374.003 64.8762 373.114 62.0274 377.918 60.9605C388.774 58.6451 397.497 50.4578 400.878 37.11C402.123 31.9457 405.326 32.3014 405.326 36.9322L405.504 52.7732C405.504 58.4672 407.46 60.427 412.445 60.427H429.172C433.975 60.427 428.816 66.6582 423.657 66.6582C419.738 66.6582 417.071 66.4766 412.445 66.6582C407.282 66.836 405.682 68.792 405.682 73.4191C405.504 77.8684 405.326 116.852 405.682 131.804C405.682 142.481 409.953 145.863 415.467 145.863C419.919 145.863 423.297 144.441 428.638 140.347C431.486 138.209 433.798 141.058 431.127 143.551C425.434 148.89 419.027 154.765 407.282 154.765C393.937 154.765 388.952 148.179 388.952 135.898Z" fill="black"/>
<path d="M446.251 127.533V80.1843C446.251 71.4636 442.336 69.1482 437.532 68.6147C432.55 68.0813 431.658 64.8768 437.532 63.9877C444.651 62.9207 453.369 61.4944 459.244 58.6456C462.622 56.8674 464.759 57.223 464.225 62.2058C462.088 85.1671 462.799 95.4919 462.799 105.105L463.159 125.218C463.514 135.721 467.074 142.304 476.859 142.304C487.893 142.304 498.571 131.09 499.815 110.444C500.349 100.475 500.171 90.5092 500.171 78.4061C500.171 71.4636 495.545 68.9704 490.03 68.437C485.759 68.0813 484.867 65.0546 490.03 64.1655C497.326 62.9208 507.645 61.1388 513.519 58.29C515.653 57.0452 517.968 57.9344 517.79 60.2497C516.723 73.5975 516.723 95.4919 516.723 105.105C516.723 115.071 517.256 129.311 517.968 134.828C518.679 140.348 522.238 143.196 527.757 143.374C531.849 143.73 532.561 146.757 527.579 147.646C520.46 148.89 510.493 151.028 504.623 153.518C502.486 154.588 500.171 154.055 500.349 151.739C500.704 147.646 501.241 134.472 501.241 131.449C501.241 130.201 500.886 129.134 499.993 129.134C499.104 129.134 498.393 130.201 497.86 131.449C490.741 148.179 482.2 154.766 469.207 154.766C458.351 154.766 446.251 149.602 446.251 127.533Z" fill="black"/>
<path d="M562.098 58.2896C564.413 57.0449 566.55 57.934 566.372 60.2494C566.013 64.343 565.48 78.7614 565.48 81.7844C565.48 83.0329 566.195 83.3885 567.083 83.3885C567.972 83.3885 568.15 83.0329 568.684 81.7844C577.225 61.672 587.725 57.7561 594.31 57.7561C598.403 57.7561 601.607 60.7828 600.896 66.1212C600.181 73.5971 596.803 76.6238 590.04 76.8017C575.802 77.1573 566.372 83.7442 566.372 105.816L566.55 133.938C566.55 141.414 570.821 146.934 582.388 148.179C587.369 148.712 587.369 152.45 582.388 152.095C575.091 151.739 567.439 150.85 558.183 150.85C549.998 150.85 543.95 152.095 536.297 152.095C531.134 152.095 530.601 148.89 536.297 148.179C545.55 146.934 548.753 143.196 549.287 134.116C549.82 124.506 549.82 116.319 549.82 106.705C549.82 97.0956 549.287 82.3215 548.576 76.8016C547.864 71.2854 544.305 69.1478 539.32 68.6144C535.227 68.0809 534.16 65.0542 539.32 64.1651C545.55 63.0981 554.805 61.1385 562.098 58.2896Z" fill="black"/>
<path d="M606.406 108.665C606.406 76.0901 624.914 57.7559 646.089 57.7559C666.734 57.7559 678.301 73.9525 678.123 86.5927C677.945 92.8202 675.275 96.9138 667.801 96.9138H630.251C625.981 96.9138 623.844 98.5179 623.844 103.678C623.844 129.133 634.7 142.481 650.715 142.303C661.215 142.125 669.223 137.498 674.742 130.733C678.656 125.751 680.612 127.888 677.23 133.76C668.512 148.89 654.989 154.765 642.174 154.765C621.71 154.765 606.406 138.924 606.406 108.665ZM660.149 84.633C660.149 71.9965 653.385 62.5608 643.778 62.5608C634.344 62.5608 627.403 70.9295 625.625 85.1665C624.914 90.3307 626.336 92.2868 631.318 92.2868C654.097 92.2868 660.149 92.4646 660.149 84.633Z" fill="black"/>
<path d="M774.214 148.89C767.277 150.135 756.777 151.917 751.258 154.765C748.947 156.01 746.81 155.299 746.987 152.984C747.343 148.89 749.125 136.431 749.125 131.626C749.125 129.667 747.165 129.133 746.098 131.626C740.224 146.219 730.617 154.765 717.627 154.765C700.719 154.765 684.704 140.169 684.704 107.772C684.704 75.5567 703.034 57.7559 723.142 57.7559C732.75 57.7559 739.158 62.0274 742.184 64.6984C746.454 68.6142 747.165 66.121 747.165 62.5608L746.81 23.5807C746.81 18.2423 742.539 15.3934 737.38 15.0378C732.931 14.6821 732.394 11.6554 737.38 10.7663C744.498 9.51786 753.751 7.73964 760.514 5.06862C762.647 3.82387 764.962 4.17951 764.784 6.85057C763.54 31.2345 763.362 65.9432 763.362 75.5567V105.994C763.362 115.604 763.895 130.556 764.606 136.076C765.318 141.592 769.233 143.907 774.214 144.441C778.666 144.974 779.199 148.001 774.214 148.89ZM747.165 107.95L746.987 91.7533C746.454 74.4897 736.846 64.5206 725.813 64.5206C713.531 64.5206 703.212 79.4725 703.212 103.679C703.212 128.066 711.042 142.84 724.92 142.84C735.954 142.84 747.343 128.066 747.165 107.95Z" fill="black"/>
</svg>
