<?xml version="1.0" encoding="UTF-8"?>
<svg id="Calque_1" xmlns="http://www.w3.org/2000/svg" version="1.1" viewBox="60 140 400 100">
  <!-- Generator: Adobe Illustrator 29.1.0, SVG Export Plug-In . SVG Version: 2.1.0 Build 142)  -->
  <path d="M98.76,149.525c-17.627,0-28.823,12.498-28.823,30.394,0,17.705,11.433,30.556,28.72,30.556s28.724-12.884,28.724-30.633c0-17.85-11.113-30.317-28.621-30.317ZM98.677,208.727c-13.535,0-21.694-11.4-21.694-29.044,0-17.79,8.377-28.411,21.694-28.411,13.474,0,21.755,11.245,21.755,28.647,0,17.769-8.698,28.808-21.755,28.808Z"/>
  <path d="M104.611,162.063c-.279-.241-.693-.241-.972,0,0,0-3.606,3.104-4.545,3.906-.121.104-.119.268.006.367,1.023.815,5.145,4.118,5.145,4.118.019.01.036.023.052.039.063.063.086.154.063.235v6.675c0,.147.083.238.162.276.049.025.148.05.251-.031l4.534-3.636c.119-.096.189-.24.189-.393v-6.978c0-.232-.101-.452-.277-.604l-4.608-3.974Z"/>
  <path d="M92.94,189.677l-.277-.577v-6.502c0-.146-.083-.238-.162-.276-.049-.024-.148-.051-.251.032l-4.535,3.635c-.119.096-.189.24-.189.393v6.978c0,.232.101.452.276.604l4.608,3.974c.28.241.693.241.973,0,0,0,3.601-3.101,4.543-3.905.115-.098.111-.276-.007-.371-1.008-.802-4.98-3.984-4.98-3.984Z"/>
  <path d="M103.972,180.183l-10.7-8.9c-.182-.151-.285-.377-.283-.621.002-.244.109-.466.293-.614,0,0,3.692-2.957,4.646-3.716.122-.097.125-.258.006-.359-.932-.795-4.548-3.909-4.548-3.909-.28-.241-.694-.241-.973,0l-4.61,3.975c-.175.151-.276.372-.276.604v8.388c0,.224.1.436.273.578l16.477,13.539c.056.046.089.115.089.187,0,.073-.033.145-.091.191,0,0-4.15,3.325-5.174,4.14-.117.093-.12.268-.006.365.937.8,4.545,3.907,4.545,3.907.28.241.694.241.973,0l4.608-3.974c.176-.151.277-.372.277-.604v-8.385c0-.227-.103-.442-.28-.584l-5.243-4.207Z"/>
  <path d="M145.897,164.045c0-3.988,3.246-6.218,6.695-6.218,4.463,0,7.775,3.784,10.548,12.167.609,1.825,1.691,1.352,1.691-.405-.068-2.974-.271-7.705-.541-10.274-.068-.677-.406-1.284-1.285-1.757-2.096-1.082-5.95-1.961-9.467-1.961-8.317,0-13.659,4.8-13.659,11.491,0,14.33,21.367,19.062,21.367,30.892,0,4.731-2.772,7.841-7.573,7.841-6.153,0-10.548-5.205-13.253-13.248-.811-2.501-1.691-2.299-1.758.338-.068,2.974,0,6.218.203,10.544.068.879.405,1.42,1.014,1.691,3.381,1.69,7.776,3.042,12.983,3.042,7.438,0,14.268-3.921,14.268-13.248,0-14.398-21.232-19.333-21.232-30.892Z"/>
  <path d="M188.495,202.71c-2.029,1.555-3.314,2.095-5.004,2.095-2.096,0-3.719-1.284-3.719-5.339-.136-5.678-.068-20.483,0-22.172,0-1.757.608-2.5,2.569-2.568,1.758-.069,2.772,0,4.26,0,1.961,0,3.922-2.366,2.096-2.366h-6.356c-1.894,0-2.637-.744-2.637-2.907l-.068-6.016c0-1.759-1.217-1.894-1.69.068-1.285,5.069-4.598,8.178-8.723,9.057-1.826.405-1.488,1.487.203,1.555,3.584.135,3.99,1.69,4.057,3.921l-.068,22.983c0,4.664,1.893,7.165,6.964,7.165,4.463,0,6.897-2.231,9.061-4.259,1.014-.947.135-2.029-.946-1.217Z"/>
  <path d="M214.187,171.346c-2.502,0-6.491,1.487-9.737,9.125-.203.474-.27.609-.608.609s-.609-.135-.609-.609c0-1.148.203-6.624.338-8.178.068-.879-.744-1.217-1.623-.744-2.772,1.082-6.289,1.826-8.655,2.231-1.961.338-1.555,1.487,0,1.69,1.894.203,3.245,1.014,3.516,3.109.27,2.096.473,7.707.473,11.356s0,6.76-.203,10.409c-.203,3.448-1.42,4.868-4.936,5.341-2.164.27-1.96,1.487,0,1.487,2.908,0,5.206-.473,8.317-.473,3.516,0,6.424.338,9.196.473,1.893.135,1.893-1.284,0-1.487-4.396-.473-6.018-2.569-6.018-5.408l-.068-10.679c0-8.382,3.584-10.884,8.993-11.019,2.569-.068,3.854-1.217,4.124-4.056.271-2.027-.946-3.177-2.502-3.177Z"/>
  <path d="M254.259,203.86c-2.095-.068-3.448-1.149-3.719-3.246-.271-2.095-.474-7.503-.474-11.287,0-3.651,0-11.965.405-17.034.069-.879-.81-1.217-1.623-.744-2.231,1.082-6.153,1.759-8.925,2.231-1.96.338-1.623,1.487,0,1.622,2.096.203,3.855,1.149,3.855,3.786,0,4.596.068,8.381-.137,12.167-.472,7.84-4.53,12.099-8.722,12.099-3.719,0-5.072-2.5-5.206-6.488l-.135-7.638c0-3.651-.27-7.572.542-16.292.202-1.892-.609-2.027-1.893-1.352-2.232,1.082-5.546,1.624-8.25,2.029-2.231.338-1.893,1.555,0,1.757,1.826.203,3.313,1.082,3.313,4.394v17.981c0,8.381,4.598,10.342,8.723,10.342,4.936,0,8.181-2.501,10.887-8.855.203-.474.473-.879.812-.879s.472.405.472.879c0,1.148-.202,6.151-.337,7.705-.068.879.81,1.082,1.623.675,2.232-.945,6.018-1.757,8.722-2.23,1.893-.338,1.623-1.487.068-1.622Z"/>
  <path d="M280.388,198.316c-2.773,3.447-5.883,5.069-9.266,5.136-5.408.068-10.007-4.596-10.007-15.546,0-8.924,3.179-14.6,7.776-14.6,4.26,0,3.719,7.706,7.573,7.706,2.705,0,5.003-3.042,3.447-5.138-1.826-2.704-5.205-4.529-9.398-4.529-8.587,0-15.891,7.638-15.891,18.656,0,12.776,6.56,18.184,14.268,18.184,5.341,0,9.534-3.448,12.374-8.652,1.216-2.299.339-2.704-.878-1.217Z"/>
  <path d="M302.093,202.71c-2.029,1.555-3.313,2.095-5.005,2.095-2.095,0-3.717-1.284-3.717-5.339-.136-5.678-.069-20.483,0-22.172,0-1.757.607-2.5,2.569-2.568,1.758-.069,2.771,0,4.26,0,1.961,0,3.921-2.366,2.096-2.366h-6.356c-1.894,0-2.638-.744-2.638-2.907l-.067-6.016c0-1.759-1.217-1.894-1.689.068-1.286,5.069-4.599,8.178-8.724,9.057-1.826.405-1.488,1.487.204,1.555,3.582.135,3.989,1.69,4.056,3.921l-.068,22.983c0,4.664,1.893,7.165,6.964,7.165,4.463,0,6.897-2.231,9.06-4.259,1.016-.947.137-2.029-.945-1.217Z"/>
  <path d="M339.932,203.86c-2.097-.068-3.45-1.149-3.72-3.246-.27-2.095-.472-7.503-.472-11.287,0-3.651,0-11.965.405-17.034.068-.879-.811-1.217-1.621-.744-2.232,1.082-6.153,1.759-8.927,2.231-1.962.338-1.622,1.487,0,1.622,2.095.203,3.853,1.149,3.853,3.786,0,4.596.068,8.381-.135,12.167-.472,7.84-4.53,12.099-8.722,12.099-3.719,0-5.07-2.5-5.205-6.488l-.136-7.638c0-3.651-.271-7.572.542-16.292.203-1.892-.611-2.027-1.893-1.352-2.232,1.082-5.546,1.624-8.25,2.029-2.232.338-1.893,1.555,0,1.757,1.826.203,3.313,1.082,3.313,4.394v17.981c0,8.381,4.598,10.342,8.723,10.342,4.936,0,8.182-2.501,10.887-8.855.203-.474.473-.879.81-.879s.474.405.474.879c0,1.148-.204,6.151-.339,7.705-.068.879.813,1.082,1.625.675,2.231-.945,6.018-1.757,8.723-2.23,1.893-.338,1.623-1.487.067-1.622Z"/>
  <path d="M365.457,171.346c-2.502,0-6.492,1.487-9.737,9.125-.204.474-.271.609-.609.609s-.609-.135-.609-.609c0-1.148.202-6.624.339-8.178.068-.879-.744-1.217-1.625-.744-2.771,1.082-6.286,1.826-8.655,2.231-1.961.338-1.554,1.487,0,1.69,1.894.203,3.247,1.014,3.517,3.109.27,2.096.473,7.707.473,11.356s0,6.76-.203,10.409c-.203,3.448-1.419,4.868-4.935,5.341-2.164.27-1.962,1.487,0,1.487,2.907,0,5.205-.473,8.316-.473,3.516,0,6.424.338,9.197.473,1.893.135,1.893-1.284,0-1.487-4.395-.473-6.018-2.569-6.018-5.408l-.068-10.679c0-8.382,3.583-10.884,8.992-11.019,2.571-.068,3.854-1.217,4.125-4.056.27-2.027-.946-3.177-2.502-3.177Z"/>
  <path d="M394.255,199.059c-2.097,2.569-5.141,4.326-9.131,4.394-6.086.068-10.21-5.001-10.21-14.668,0-1.96.813-2.569,2.436-2.569h14.266c2.841,0,3.855-1.555,3.922-3.919.068-4.8-4.327-10.951-12.172-10.951-8.044,0-15.078,6.963-15.078,19.333,0,11.491,5.815,17.507,13.592,17.507,4.869,0,10.006-2.231,13.32-7.977,1.286-2.23.542-3.042-.945-1.149ZM375.592,181.755c.675-5.407,3.312-8.585,6.897-8.585,3.651,0,6.221,3.583,6.221,8.382,0,2.974-2.299,2.907-10.954,2.907-1.893,0-2.433-.743-2.163-2.704Z"/>
  <path d="M432.718,204.265c-1.893-.203-3.38-1.082-3.649-3.177-.272-2.096-.474-7.774-.474-11.424v-11.559c0-3.651.068-16.832.541-26.092.068-1.014-.58-1.059-1.623-.677-2.57,1.014-6.086,1.69-8.79,2.164-1.894.338-1.69,1.487,0,1.622,1.961.135,3.582,1.217,3.582,3.244l.136,14.803c0,1.352-.271,2.299-1.893.812-1.151-1.014-3.585-2.636-7.236-2.636-7.639,0-14.605,6.76-14.605,18.994,0,12.303,6.086,17.846,12.51,17.846,4.937,0,8.586-3.246,10.818-8.787.406-.947,1.151-.744,1.151,0,0,1.825-.677,6.556-.813,8.11-.068.879.745,1.149,1.623.677,2.097-1.082,6.087-1.758,8.723-2.231,1.894-.338,1.692-1.487,0-1.69ZM413.988,203.657c-5.274,0-8.248-5.611-8.248-14.872,0-9.192,3.921-14.871,8.587-14.871,4.193,0,7.842,3.786,8.045,10.342l.069,6.151c.068,7.639-4.26,13.25-8.453,13.25Z"/>
</svg>